<svg xmlns="http://www.w3.org/2000/svg" version="1.1" width="1920" height="1080">
<path d="M0 0 C633.6 0 1267.2 0 1920 0 C1920 356.4 1920 712.8 1920 1080 C1286.4 1080 652.8 1080 0 1080 C0 723.6 0 367.2 0 0 Z " fill="#FCFCFC" transform="translate(0,0)"/>
<path d="M0 0 C12.54 0 25.08 0 38 0 C38.33 25.74 38.66 51.48 39 78 C39.99 78.495 39.99 78.495 41 79 C41.23589844 78.44183594 41.47179688 77.88367188 41.71484375 77.30859375 C47.51032519 66.89786569 58.12455899 60.84545028 69.18164062 57.62182617 C74.11136011 56.53416197 78.97187229 56.56757215 84 56.625 C85.01578125 56.61339844 86.0315625 56.60179687 87.078125 56.58984375 C98.84309858 56.63509365 111.03559714 60.0430259 119.8125 68.25 C128.61549687 77.83824072 133.15237214 91.19254645 133.09765625 104.05078125 C133.09515869 105.25645752 133.09266113 106.46213379 133.09008789 107.7043457 C133.08098389 109.22503662 133.07187988 110.74572754 133.0625 112.3125 C133.041875 117.159375 133.02125 122.00625 133 127 C143.89 127 154.78 127 166 127 C166 123.04 166 119.08 166 115 C168.59675483 98.23912792 177.13387199 81.84991707 190.37890625 71.0625 C202.73876521 62.08757894 215.62780562 56.88197516 230.9921875 56.8671875 C232.27351563 56.86589844 233.55484375 56.86460937 234.875 56.86328125 C235.85919922 56.86642334 235.85919922 56.86642334 236.86328125 56.86962891 C238.89069913 56.87504192 240.9179009 56.86963218 242.9453125 56.86328125 C244.85570312 56.86521484 244.85570312 56.86521484 246.8046875 56.8671875 C247.96983887 56.86831543 249.13499023 56.86944336 250.33544922 56.87060547 C253 57 253 57 254 58 C255.39330381 58.2246285 256.78989209 58.4289245 258.1875 58.625 C271.26408272 61.20295488 282.79017127 68.86116065 290.8359375 79.40625 C297.41826811 89.69740649 301.14950687 100.9053312 301.16796875 113.07421875 C301.17129715 113.83926224 301.17462555 114.60430573 301.17805481 115.39253235 C301.18309867 117.0019979 301.18546392 118.61147382 301.18530273 120.22094727 C301.18750204 122.68978798 301.20571891 125.15819061 301.22460938 127.62695312 C301.22754122 129.19270681 301.22952741 130.75846261 301.23046875 132.32421875 C301.23765427 133.06379318 301.24483978 133.80336761 301.25224304 134.56535339 C301.2288423 139.7711577 301.2288423 139.7711577 299 142 C296.01880998 142.21794594 293.12783929 142.31145409 290.14404297 142.31884766 C289.22691528 142.32889328 288.3097876 142.3389389 287.36486816 142.34928894 C284.32398117 142.38025685 281.28318275 142.39719378 278.2421875 142.4140625 C276.1375349 142.43276321 274.03288987 142.45233578 271.92825317 142.4727478 C266.38149475 142.52419093 260.83471198 142.56375134 255.2878418 142.60089111 C249.63063475 142.64085457 243.97353003 142.69198175 238.31640625 142.7421875 C227.21100925 142.83909094 216.10555463 142.92344942 205 143 C205.14974781 144.60757671 205.30260609 146.2148639 205.45678711 147.82202148 C205.54157822 148.71710922 205.62636932 149.61219696 205.71372986 150.53440857 C206.74199121 159.39063212 211.54507078 166.0954911 218 172 C220.98434837 173.99425024 220.98434837 173.99425024 224 175 C224.89074219 175.34546875 225.78148437 175.6909375 226.69921875 176.046875 C237.07705062 179.04355071 249.62049016 177.57563879 259.2734375 172.8984375 C265.04358583 169.57363084 269.36666017 165.22425778 272 159 C276.25643974 158.64030087 278.13975347 159.42227664 281.5 162 C285.60079293 165.02913556 289.7726851 167.79178831 294.125 170.4375 C295.24132813 171.11683594 296.35765625 171.79617188 297.5078125 172.49609375 C298.33023437 172.99238281 299.15265625 173.48867188 300 174 C298.20992837 183.79949468 289.94619173 192.57720939 282.01953125 198.0625 C268.31171271 206.80464922 255.67275441 210.40032385 239.4375 210.375 C238.40262451 210.37411377 237.36774902 210.37322754 236.30151367 210.37231445 C225.30426226 210.20539416 213.41237734 209.12551541 204 203 C202.39125 202.38125 202.39125 202.38125 200.75 201.75 C195.86463807 199.70471832 191.99724562 196.41633103 188 193 C187.31679687 192.42507813 186.63359375 191.85015625 185.9296875 191.2578125 C179.63214835 185.50359045 175.90828627 178.46993961 172 171 C171.4740625 170.07832031 170.948125 169.15664063 170.40625 168.20703125 C168.49611854 163.85087034 167.67977656 159.47284601 166.8125 154.8125 C166.63525391 153.91080078 166.45800781 153.00910156 166.27539062 152.08007812 C165 145.46675917 165 145.46675917 165 142 C164.31486328 142.00523682 163.62972656 142.01047363 162.92382812 142.01586914 C159.78256163 142.03681445 156.64130989 142.0497156 153.5 142.0625 C152.42234375 142.07087891 151.3446875 142.07925781 150.234375 142.08789062 C148.64882812 142.09272461 148.64882812 142.09272461 147.03125 142.09765625 C146.06767578 142.10289307 145.10410156 142.10812988 144.11132812 142.11352539 C140.39147523 141.97779629 136.69358402 141.461698 133 141 C133 162.78 133 184.56 133 207 C120.79 207 108.58 207 96 207 C95.98541748 204.05336426 95.97083496 201.10672852 95.95581055 198.07080078 C95.9053697 188.31180621 95.83875783 178.5529696 95.76428509 168.79413033 C95.71964554 162.88002014 95.68037517 156.96597783 95.65356445 151.05175781 C95.62746765 145.33929395 95.58701991 139.62709216 95.53681374 133.91479111 C95.52018815 131.74045966 95.50864715 129.56608293 95.50238609 127.39169693 C95.49269816 124.33523634 95.4645826 121.27943978 95.43237305 118.22314453 C95.43380814 117.33337418 95.43524323 116.44360382 95.4367218 115.52687073 C95.32904389 108.25497887 93.93097713 101.55299791 90.4375 95.125 C84.76762029 90.18202795 78.00055243 88.37693457 70.57421875 88.75 C69.72472656 88.8325 68.87523437 88.915 68 89 C67.07832031 89.0825 66.15664062 89.165 65.20703125 89.25 C56.75864262 90.36868318 52.15098012 93.84901988 46.25 99.75 C41.55196565 106.53604961 39.77977366 113.04192025 38.91259766 121.22412109 C38.82774927 122.01164953 38.74290089 122.79917797 38.65548134 123.61057091 C37.79896524 132.12484172 37.64870528 140.61340732 37.5859375 149.1640625 C37.56715578 150.81986377 37.54757765 152.47565617 37.5272522 154.13143921 C37.47666258 158.42194303 37.43665333 162.71247765 37.39910889 167.00311279 C37.35143892 172.18731256 37.2901653 177.37136848 37.23126221 182.55545044 C37.14394612 190.37023985 37.0735437 198.18501438 37 206 C25.12 206 13.24 206 1 206 C1 153.2 1 100.4 1 46 C0.34 45.67 -0.32 45.34 -1 45 C-0.67 30.15 -0.34 15.3 0 0 Z " fill="#5472FE" transform="translate(1250,406)"/>
<path d="M0 0 C13.57485969 11.00541388 20.64360355 27.9814416 23 45 C23.12628078 47.84767517 23.21091304 50.67124104 23.23828125 53.51953125 C23.246353 54.33636887 23.25442474 55.15320648 23.26274109 55.99479675 C23.27652875 57.72364214 23.28727452 59.45251413 23.29516602 61.18139648 C23.30659281 62.91585509 23.32689377 64.65028118 23.35668945 66.38452148 C23.61132736 81.24883121 22.51473961 96.07223283 15.3125 109.4375 C14.9721875 110.09161865 14.631875 110.7457373 14.28125 111.41967773 C11.02565579 117.41663026 6.93017217 122.28797705 2 127 C1.36449219 127.65484375 0.72898437 128.3096875 0.07421875 128.984375 C-5.21586433 134.11016979 -11.13032229 136.54525914 -18 139 C-19.16789062 139.48146484 -19.16789062 139.48146484 -20.359375 139.97265625 C-33.34334879 144.78568102 -50.66151823 143.06393859 -63.0625 137.5 C-68.72110885 134.53033844 -72.82011862 130.64427365 -77.13671875 125.9765625 C-77.75160156 125.32429687 -78.36648438 124.67203125 -79 124 C-79.33 124 -79.66 124 -80 124 C-80.33 148.75 -80.66 173.5 -81 199 C-93.54 199 -106.08 199 -119 199 C-119 130.36 -119 61.72 -119 -9 C-106.46 -9 -93.92 -9 -81 -9 C-81 -2.4 -81 4.2 -81 11 C-77.39087717 7.3969707 -77.39087717 7.3969707 -73.859375 3.71875 C-54.70370337 -16.43017868 -21.79746814 -16.13530749 0 0 Z " fill="#5472FE" transform="translate(389,474)"/>
<path d="M0 0 C11.55 0 23.1 0 35 0 C36.74037816 7.75751779 38.47986168 15.51517105 40.21234894 23.27444458 C41.02001924 26.89077164 41.82894424 30.50680552 42.64135742 34.12207031 C47.5568018 56.00258633 52.00886538 77.92966781 56 100 C56.99 99.67 57.98 99.34 59 99 C60.01156721 96.78710399 60.01156721 96.78710399 60.68359375 94.03125 C60.96912109 92.99403809 61.25464844 91.95682617 61.54882812 90.88818359 C61.84208984 89.77008301 62.13535156 88.65198242 62.4375 87.5 C62.74751953 86.35740723 63.05753906 85.21481445 63.37695312 84.03759766 C65.2189032 77.18241555 66.89418411 70.30414116 68.44775391 63.37915039 C70.2660663 55.49318809 72.73260123 47.80345945 75.12890625 40.078125 C77.37606198 32.82588699 79.49014484 25.53621849 81.6027832 18.24389648 C81.8730835 17.31134033 82.14338379 16.37878418 82.421875 15.41796875 C82.65487305 14.61125732 82.88787109 13.8045459 83.12792969 12.97338867 C84.39804439 8.64283803 85.70320882 4.32263726 87 0 C97.56 0 108.12 0 119 0 C121.00202108 6.00606325 122.94442832 11.99876255 124.75 18.0625 C125.00531494 18.91682617 125.26062988 19.77115234 125.52368164 20.65136719 C128.12360661 29.37379745 130.67144252 38.11138019 133.2109375 46.8515625 C134.39652832 50.93180893 135.58942693 55.00979873 136.7890625 59.0859375 C137.38026397 61.098942 137.97141019 63.11196272 138.5625 65.125 C138.85084717 66.10315674 139.13919434 67.08131348 139.4362793 68.08911133 C140.92127176 73.16308022 142.34130093 78.24546225 143.66796875 83.36328125 C143.93472412 84.38341309 144.20147949 85.40354492 144.47631836 86.45458984 C144.98190015 88.40384776 145.4766854 90.35594654 145.95922852 92.31103516 C146.18408936 93.17647949 146.4089502 94.04192383 146.640625 94.93359375 C146.83172852 95.69728271 147.02283203 96.46097168 147.21972656 97.24780273 C147.4772168 97.82602783 147.73470703 98.40425293 148 99 C148.99 99.33 149.98 99.66 151 100 C151.15239136 98.77337646 151.15239136 98.77337646 151.30786133 97.52197266 C152.47074925 88.74896417 154.17635137 80.22765026 156.1703186 71.61331177 C159.66052481 56.50803214 162.77581732 41.34979441 165.65307617 26.11669922 C170.27023774 1.72976226 170.27023774 1.72976226 172 0 C174.44830426 -0.08843793 176.86820599 -0.11528752 179.31640625 -0.09765625 C180.04746078 -0.0962413 180.77851532 -0.09482635 181.53172302 -0.09336853 C183.87535632 -0.08775408 186.21889539 -0.07519922 188.5625 -0.0625 C190.14778508 -0.05748686 191.73307166 -0.05292363 193.31835938 -0.04882812 C197.2122761 -0.03777997 201.10612205 -0.02050572 205 0 C203.98092587 8.53488537 203.98092587 8.53488537 203.1328125 12.26171875 C202.97087402 12.98198242 202.80893555 13.70224609 202.64208984 14.44433594 C202.4714502 15.18458008 202.30081055 15.92482422 202.125 16.6875 C201.94791504 17.46770508 201.77083008 18.24791016 201.58837891 19.05175781 C201.23050915 20.62586843 200.87100043 22.19960742 200.50976562 23.77294922 C200.04662281 25.7963155 199.59308396 27.82187411 199.140625 29.84765625 C198.76164062 31.53181641 198.76164062 31.53181641 198.375 33.25 C198.15585937 34.22453125 197.93671875 35.1990625 197.7109375 36.203125 C197 39 197 39 196.06103516 41.64233398 C194.82033022 45.56856846 194.06610046 49.47710105 193.3125 53.51953125 C190.76469592 66.68274741 187.59623446 79.69745022 184.46862793 92.73254395 C183.68752899 95.9910226 182.91027108 99.25041683 182.1328125 102.50976562 C181.23154802 106.28719639 180.3297857 110.06450204 179.42578125 113.84127808 C177.52962394 121.76364681 175.65932433 129.69144598 173.82421875 137.62817383 C172.97339284 141.10884821 171.98436835 144.55471078 171 148 C157.8 148 144.6 148 131 148 C130.01 143.545 130.01 143.545 129 139 C128.28415655 137.06630431 127.56693519 135.1328308 126.81225586 133.21395874 C125.09184967 128.52466254 123.85871971 123.67522667 122.53125 118.86328125 C122.20966919 117.70684616 121.88808838 116.55041107 121.5567627 115.3589325 C120.87935464 112.91954219 120.20372965 110.47965611 119.52978516 108.03930664 C118.5077644 104.34059947 117.47893071 100.643838 116.44921875 96.94726562 C115.78865263 94.56521779 115.12848365 92.18305978 114.46875 89.80078125 C114.16553833 88.71179031 113.86232666 87.62279938 113.54992676 86.50080872 C111.75552242 79.98613651 110.13502344 73.45133094 108.64836121 66.85949707 C107.76270737 62.95345747 106.79554429 59.06995119 105.8125 55.1875 C105.63525391 54.48302734 105.45800781 53.77855469 105.27539062 53.05273438 C104.8513932 51.36820406 104.42587805 49.68405585 104 48 C102.68 48 101.36 48 100 48 C99.82210937 49.72669922 99.82210937 49.72669922 99.640625 51.48828125 C99.09011076 55.87410885 97.99195004 59.95581274 96.75 64.1875 C94.88342612 70.63945357 93.2243839 77.11319859 91.7109375 83.65625 C89.21526605 94.27879197 86.47942749 104.8299411 83.66064453 115.37084961 C82.86374712 118.35463361 82.07429154 121.34032674 81.28515625 124.32617188 C80.77127603 126.25532631 80.25696924 128.18436718 79.7421875 130.11328125 C79.39521317 131.42900871 79.39521317 131.42900871 79.04122925 132.77131653 C77.6398162 137.98269325 75.97348591 142.97635056 74 148 C68.46411467 148.02464775 62.928261 148.04283496 57.39233398 148.05493164 C55.5075627 148.05997244 53.62279535 148.06680498 51.73803711 148.07543945 C49.03498364 148.08751617 46.33198169 148.09323068 43.62890625 148.09765625 C42.78099014 148.10281754 41.93307404 148.10797882 41.0594635 148.11329651 C39.03928932 148.11349195 37.01922066 148.06206211 35 148 C33.40732884 146.40732884 33.53074361 144.50990069 33.1875 142.3125 C32.1975118 136.58843288 30.67402196 131.11296352 29 125.5546875 C28.07423094 122.26386779 27.3125467 118.98515844 26.58935547 115.64648438 C25.05840936 108.77181335 23.32768996 101.9407282 21.65429688 95.09960938 C19.87179397 87.76466791 18.21099838 80.41572169 16.65014648 73.03051758 C15.92390032 69.64527778 15.1136455 66.29023702 14.25 62.9375 C12.24378315 55.0325138 10.30221211 47.11208859 8.375 39.1875 C8.07368164 37.9595874 7.77236328 36.7316748 7.46191406 35.46655273 C5.91713285 29.09842039 4.54934032 22.74962549 3.42919922 16.29370117 C2.93326973 13.64338404 2.22865157 11.11914333 1.375 8.5625 C0.30257457 5.33991467 0 3.51662803 0 0 Z " fill="#5472FE" transform="translate(589,465)"/>
<path d="M0 0 C1.91522461 -0.0299707 1.91522461 -0.0299707 3.86914062 -0.06054688 C20.34673754 -0.05216133 35.96108179 5.51546326 47.9375 17.03125 C61.39672131 31.42513946 64.55517997 48.74962153 64.5 67.875 C64.51611328 69.01904297 64.53222656 70.16308594 64.54882812 71.34179688 C64.54947266 72.44458984 64.55011719 73.54738281 64.55078125 74.68359375 C64.55376221 75.67029053 64.55674316 76.6569873 64.55981445 77.67358398 C64.09030902 81.1590076 63.49833915 82.75105732 61.1875 85.4375 C58.02392692 85.95215572 55.38794443 86.12841792 52.21801758 86.09692383 C51.30074387 86.10740753 50.38347015 86.11789124 49.43840027 86.12869263 C46.40260323 86.15752362 43.36794111 86.15114164 40.33203125 86.14453125 C38.22880111 86.15764139 36.12558358 86.1729435 34.02238464 86.19035339 C28.48374831 86.23029608 22.94544063 86.24039983 17.40667725 86.24438477 C11.75604218 86.25369872 6.10560165 86.29110133 0.45507812 86.32617188 C-10.63410542 86.39084216 -21.7231444 86.42400483 -32.8125 86.4375 C-32.66341414 87.87517417 -32.51129855 89.31253437 -32.35791016 90.74975586 C-32.27352692 91.55021835 -32.18914368 92.35068085 -32.10220337 93.17539978 C-31.01616307 101.65556346 -27.26395786 108.85679106 -20.8125 114.4375 C-11.80485984 120.71101238 0.4720168 121.78665553 11.046875 119.9375 C20.19297792 117.71413796 26.57189313 113.9784578 32.1875 106.4375 C32.785625 105.65375 33.38375 104.87 34 104.0625 C34.391875 103.52625 34.78375 102.99 35.1875 102.4375 C39.30179487 103.01136146 42.01728955 104.34455637 45.48828125 106.59765625 C46.46474609 107.22607422 47.44121094 107.85449219 48.44726562 108.50195312 C49.45466797 109.16130859 50.46207031 109.82066406 51.5 110.5 C52.52673828 111.16322266 53.55347656 111.82644531 54.61132812 112.50976562 C57.14131681 114.14543273 59.66640242 115.78817493 62.1875 117.4375 C60.64652027 126.43313383 53.22370232 134.78504062 46.1875 140.4375 C27.8154676 153.23358482 6.27977636 156.45276884 -15.76171875 152.71484375 C-33.85014762 149.01583505 -50.13263762 139.7774742 -60.4375 124.1875 C-69.36980155 109.46722726 -72.34139544 95.28692645 -72.14868164 78.29443359 C-72.12479933 76.04358767 -72.12818677 73.79391197 -72.13476562 71.54296875 C-72.05850051 51.55986446 -65.17827716 31.80327716 -50.8125 17.4375 C-43.88419444 11.45062024 -36.02027656 6.7843249 -27.22753906 4.17529297 C-25.7058163 3.71040759 -24.1939433 3.21051 -22.70019531 2.66235352 C-15.16192106 0.03411339 -7.92363001 -0.04360177 0 0 Z " fill="#5472FE" transform="translate(884.8125,462.5625)"/>
<path d="M0 0 C1.12446533 -0.01409912 2.24893066 -0.02819824 3.4074707 -0.04272461 C13.40858434 0.01525499 22.7504077 1.63942955 31.6875 6.3125 C33.10869141 7.03759766 33.10869141 7.03759766 34.55859375 7.77734375 C43.41780778 13.03629663 48.87337026 20.72996016 52.25 30.375 C53.30629433 34.61822747 53.41393177 38.7672984 53.43945312 43.11523438 C53.45189308 44.26008049 53.45189308 44.26008049 53.46458435 45.42805481 C53.48192946 47.07911657 53.49711118 48.73020218 53.51036072 50.38130188 C53.53146938 52.99592338 53.55848495 55.61042543 53.58703613 58.22497559 C53.65671054 64.7171632 53.71620397 71.20943702 53.77606201 77.70172119 C53.8270724 83.19217493 53.88192388 88.68256429 53.94187927 94.17292786 C53.96838605 96.74592149 53.98923984 99.31892143 54.0098877 101.89196777 C54.0264961 103.47290334 54.04336841 105.05383615 54.06054688 106.63476562 C54.06473129 107.34764236 54.06891571 108.0605191 54.07322693 108.79499817 C54.11900687 112.44023635 54.39129669 115.8283127 55.25 119.375 C58.67232972 120.51577657 61.33673217 120.47315117 64.9375 120.4375 C66.11699219 120.42847656 67.29648438 120.41945313 68.51171875 120.41015625 C69.41535156 120.39855469 70.31898438 120.38695312 71.25 120.375 C72.4241788 129.41198325 73.53994872 138.24161545 73.25 147.375 C61.07687236 152.12045654 46.91916128 154.04821467 34.55078125 148.69921875 C28.00969852 144.93448693 23.85583327 139.41560542 21.25 132.375 C21.25 131.715 21.25 131.055 21.25 130.375 C20.26 130.375 19.27 130.375 18.25 130.375 C18.00121094 131.09816406 17.75242187 131.82132813 17.49609375 132.56640625 C13.46616229 141.6495433 5.22670922 147.70737309 -3.75 151.375 C-16.45469852 155.70805943 -33.38342215 154.65191535 -45.49609375 149.12109375 C-54.1753238 144.27287849 -61.21636249 137.78096264 -64.75 128.375 C-65.04777344 127.63378906 -65.34554687 126.89257812 -65.65234375 126.12890625 C-69.28434365 115.40027982 -69.76922021 101.36653725 -65.8125 90.6875 C-62.86865773 84.80810796 -58.76831382 80.5513708 -53.75 76.375 C-52.80253906 75.54548828 -52.80253906 75.54548828 -51.8359375 74.69921875 C-39.83594695 65.44823002 -21.93511667 63.3430867 -7.53393555 60.5546875 C5.24551014 58.12756011 5.24551014 58.12756011 15.25 50.375 C16.49164611 46.65006166 16.77250575 43.2445716 16.25 39.375 C14.08283644 35.31156832 11.29578854 33.31205783 6.90625 31.87890625 C-6.96897962 29.24669357 -21.82478542 31.78286028 -33.75 39.375 C-36.64664085 41.6688264 -39.44999963 44.0246304 -42.20703125 46.484375 C-44.88478643 48.47520988 -46.52267504 48.84861182 -49.75 49.375 C-52.25749797 45.75513325 -54.75470815 42.12828923 -57.25 38.5 C-57.96542969 37.46746094 -58.68085937 36.43492187 -59.41796875 35.37109375 C-60.09472656 34.38496094 -60.77148438 33.39882813 -61.46875 32.3828125 C-62.09716797 31.47160645 -62.72558594 30.56040039 -63.37304688 29.62158203 C-64.75 27.375 -64.75 27.375 -64.75 25.375 C-62.31330674 22.79168623 -59.50163714 20.61317375 -56.75 18.375 C-55.95207031 17.71757812 -55.15414062 17.06015625 -54.33203125 16.3828125 C-38.09970198 3.76039609 -20.21292592 0.18561628 0 0 Z " fill="#5372FE" transform="translate(1038.75,462.625)"/>
<path d="M0 0 C12.54 0 25.08 0 38 0 C38.33 25.74 38.66 51.48 39 78 C39.99 78.495 39.99 78.495 41 79 C41.23589844 78.44183594 41.47179688 77.88367188 41.71484375 77.30859375 C47.51032519 66.89786569 58.12455899 60.84545028 69.18164062 57.62182617 C74.11136011 56.53416197 78.97187229 56.56757215 84 56.625 C85.01578125 56.61339844 86.0315625 56.60179687 87.078125 56.58984375 C98.84309858 56.63509365 111.03559714 60.0430259 119.8125 68.25 C127.81921065 76.97092428 133.13380697 89.91889972 133.12025452 101.77729797 C133.12231651 103.17594337 133.12231651 103.17594337 133.12442017 104.60284424 C133.12082489 105.6134491 133.11722961 106.62405396 133.11352539 107.6652832 C133.11367142 108.7389061 133.11381744 109.81252899 133.1139679 110.91868591 C133.11327196 114.46273834 133.10549444 118.00673802 133.09765625 121.55078125 C133.09579094 124.00986197 133.09436757 126.46894307 133.09336853 128.92802429 C133.08955227 135.39707466 133.07972956 141.86610255 133.06866455 148.33514404 C133.0584313 154.93761898 133.0538668 161.54009755 133.04882812 168.14257812 C133.03810652 181.09506355 133.02051689 194.04752638 133 207 C120.79 207 108.58 207 96 207 C95.98541748 204.05336426 95.97083496 201.10672852 95.95581055 198.07080078 C95.9053697 188.31180621 95.83875783 178.5529696 95.76428509 168.79413033 C95.71964554 162.88002014 95.68037517 156.96597783 95.65356445 151.05175781 C95.62746765 145.33929395 95.58701991 139.62709216 95.53681374 133.91479111 C95.52018815 131.74045966 95.50864715 129.56608293 95.50238609 127.39169693 C95.49269816 124.33523634 95.4645826 121.27943978 95.43237305 118.22314453 C95.43380814 117.33337418 95.43524323 116.44360382 95.4367218 115.52687073 C95.32904389 108.25497887 93.93097713 101.55299791 90.4375 95.125 C84.76762029 90.18202795 78.00055243 88.37693457 70.57421875 88.75 C69.72472656 88.8325 68.87523437 88.915 68 89 C67.07832031 89.0825 66.15664062 89.165 65.20703125 89.25 C56.75864262 90.36868318 52.15098012 93.84901988 46.25 99.75 C41.55196565 106.53604961 39.77977366 113.04192025 38.91259766 121.22412109 C38.82774927 122.01164953 38.74290089 122.79917797 38.65548134 123.61057091 C37.79896524 132.12484172 37.64870528 140.61340732 37.5859375 149.1640625 C37.56715578 150.81986377 37.54757765 152.47565617 37.5272522 154.13143921 C37.47666258 158.42194303 37.43665333 162.71247765 37.39910889 167.00311279 C37.35143892 172.18731256 37.2901653 177.37136848 37.23126221 182.55545044 C37.14394612 190.37023985 37.0735437 198.18501438 37 206 C25.12 206 13.24 206 1 206 C1 153.2 1 100.4 1 46 C0.34 45.67 -0.32 45.34 -1 45 C-0.67 30.15 -0.34 15.3 0 0 Z " fill="#5371FE" transform="translate(1250,406)"/>
<path d="M0 0 C12.87 0 25.74 0 39 0 C41.475 7.425 41.475 7.425 44 15 C44.99 17.31 45.98 19.62 47 22 C47.52373771 23.44997756 48.02768986 24.90746491 48.5 26.375 C48.7475 27.13296875 48.995 27.8909375 49.25 28.671875 C49.75 30.22395833 50.25 31.77604167 50.75 33.328125 C51.88175203 36.79411559 53.06063543 40.14132475 54.5 43.49609375 C56.26410073 47.6169228 57.627867 51.7988193 59 56.0625 C62.50495018 66.79923255 66.39763015 77.38123058 70.35546875 87.95727539 C70.81308594 89.18824951 71.27070313 90.41922363 71.7421875 91.6875 C72.1532373 92.78449219 72.56428711 93.88148438 72.98779297 95.01171875 C73.89086383 97.6778035 74.52774916 100.22946175 75 103 C76.32 103 77.64 103 79 103 C79.0721875 102.10796875 79.144375 101.2159375 79.21875 100.296875 C80.07387358 94.36445515 82.43025776 88.84346108 84.5 83.25 C85.4113712 80.7482679 86.32091308 78.24598543 87.2265625 75.7421875 C87.45755646 75.10459503 87.68855042 74.46700256 87.92654419 73.81008911 C90.76155712 65.94679068 93.36609788 58.00675651 95.95507812 50.05957031 C97.8223706 44.36802064 99.81011782 38.78200918 102.11743164 33.25292969 C103.3860957 30.01441463 104.32467971 26.69842079 105.2890625 23.359375 C106.12356187 20.58993752 107.12986007 17.91770184 108.17578125 15.22265625 C109.61661232 11.33719236 110.85960627 7.38439764 112.1328125 3.44140625 C113 1 113 1 114 0 C116.8116338 -0.08861992 119.59858255 -0.11522355 122.41015625 -0.09765625 C123.25219101 -0.0962413 124.09422577 -0.09482635 124.96177673 -0.09336853 C127.66205335 -0.08775263 130.36224828 -0.07519748 133.0625 -0.0625 C134.88867068 -0.05748705 136.71484266 -0.05292379 138.54101562 -0.04882812 C143.02737542 -0.03777804 147.51367384 -0.02050279 152 0 C150.07493236 5.96403788 147.94783831 11.80561066 145.625 17.625 C142.89686746 24.5336832 140.47840973 31.47794513 138.18359375 38.54296875 C136.71787374 42.82403216 134.97124491 46.94708349 133.18359375 51.1015625 C131.97730838 54.05556827 130.97243711 57.02412221 130 60.0625 C128.71187837 64.06245663 127.22853032 67.82373864 125.4375 71.625 C123.45653639 75.83379502 122.05493089 79.95958988 120.80078125 84.4296875 C119.92801393 87.23105772 118.84457177 89.86633912 117.6875 92.5625 C115.55198132 97.54108873 113.70511046 102.57073289 111.9375 107.6875 C108.9344669 116.36618068 108.9344669 116.36618068 107 120.5 C105.09350079 124.58873177 103.60735029 128.80635429 102.125 133.0625 C81.03899409 193.53294376 81.03899409 193.53294376 55.42578125 206.28125 C38.72693038 213.44155359 16.91318145 211.57140095 0 206 C-0.33586537 199.01400022 0.92792163 192.78967902 2.5 186 C2.73847656 184.93910156 2.97695313 183.87820313 3.22265625 182.78515625 C3.80753684 180.18828644 4.40013876 177.59344265 5 175 C8.41892736 174.02411805 9.92615248 174.1300425 13.25 175.4375 C21.21200157 178.00093374 31.61825937 178.55235922 39.625 175.75 C40.73875 175.1725 41.8525 174.595 43 174 C44.03125 173.484375 45.0625 172.96875 46.125 172.4375 C51.26856202 168.07665394 55.06436627 161.46857189 57 155 C56.22386606 146.24242897 52.36561116 137.69432652 49.0625 129.6171875 C46.96190155 124.44291925 44.99728902 119.21480628 43 114 C42.16701446 111.8331996 41.33368358 109.66653193 40.5 107.5 C38.83333333 103.16666667 37.16666667 98.83333333 35.5 94.5 C35.0875 93.42878906 34.675 92.35757813 34.25 91.25390625 C33.41317859 89.07555551 32.57987211 86.89585139 31.75 84.71484375 C29.76907435 79.52110432 27.74552784 74.36233038 25.5625 69.25 C23.19047198 63.62575745 21.166286 57.9088244 19.16259766 52.14648438 C17.54882055 47.51664224 15.83695108 42.94906611 13.98046875 38.41015625 C12.18656733 34.00044639 10.50396914 29.54760195 8.80517578 25.10058594 C7.84232451 22.5886477 6.87202657 20.07962124 5.90234375 17.5703125 C5.16392047 15.65109631 4.42563952 13.73182535 3.6875 11.8125 C3.14464355 10.41197388 3.14464355 10.41197388 2.59082031 8.9831543 C2.2553418 8.10828369 1.91986328 7.23341309 1.57421875 6.33203125 C1.27088623 5.54546143 0.96755371 4.7588916 0.6550293 3.94848633 C0 2 0 2 0 0 Z " fill="#5472FE" transform="translate(429,465)"/>
<path d="M0 0 C0 11.22 0 22.44 0 34 C13.86 34 27.72 34 42 34 C42 43.9 42 53.8 42 64 C28.14 64 14.28 64 0 64 C0.14909106 76.44829992 0.14909106 76.44829992 0.30664062 88.89648438 C0.37281476 93.97677847 0.43801804 99.05707154 0.49731445 104.13745117 C0.54520591 108.23533747 0.59755587 112.33314519 0.65294075 116.43093681 C0.67325258 117.99093088 0.69198327 119.5509464 0.70907402 121.11097908 C0.73336738 123.30331253 0.76338499 125.49550091 0.79467773 127.68774414 C0.81799416 129.55638878 0.81799416 129.55638878 0.84178162 131.46278381 C1.13846234 138.09553939 1.62807968 142.80095962 6 148 C11.2058785 151.80917939 16.80356709 151.65810391 23 151 C28.41467467 149.84396649 28.41467467 149.84396649 33 147 C34.66617115 146.95936168 36.33388095 146.957279 38 147 C40.4852736 152.90078929 42.70299551 158.87287278 44.75 164.9375 C44.97260498 165.5879126 45.19520996 166.2383252 45.42456055 166.90844727 C46.36718268 169.73927207 47 171.99379164 47 175 C29.69253682 184.66897384 12.55287024 187.74195812 -6.7421875 183.0390625 C-18.34129824 179.33958593 -25.87002624 173.10669397 -31.8125 162.625 C-34.47885501 157.40562497 -36.20792364 152.77744817 -37 147 C-37.1367942 146.00361008 -37.1367942 146.00361008 -37.27635193 144.98709106 C-38.24500819 136.69167943 -38.12607199 128.39135318 -38.09765625 120.0546875 C-38.09578758 118.43230229 -38.0943658 116.8099165 -38.09336853 115.18753052 C-38.08957866 110.94944661 -38.07977916 106.71139782 -38.06866455 102.47332764 C-38.0583739 98.13586909 -38.05385462 93.79840478 -38.04882812 89.4609375 C-38.03815319 80.97394055 -38.02058563 72.48697871 -38 64 C-45.26 64 -52.52 64 -60 64 C-60 54.1 -60 44.2 -60 34 C-52.41 34 -44.82 34 -37 34 C-37 24.43 -37 14.86 -37 5 C-32.53478249 4.28433835 -28.06931551 3.5710627 -23.6027832 2.86376953 C-22.08465865 2.62264326 -20.56675116 2.38014607 -19.04907227 2.13623047 C-16.8627041 1.78509301 -14.67559281 1.43895588 -12.48828125 1.09375 C-11.81412674 0.9843811 -11.13997223 0.87501221 -10.44538879 0.7623291 C-6.86770945 0.20298699 -3.65314601 0 0 0 Z " fill="#5472FE" transform="translate(1179,431)"/>
<path d="M0 0 C0.495 0.495 0.495 0.495 1 1 C0.22857143 28.77142857 0.22857143 28.77142857 -5 34 C-7.96129476 34.25382527 -9.91650644 34.03147527 -12.71484375 32.9765625 C-20.88347414 30.54831328 -31.4872044 32.10944513 -39 36 C-46.15058228 40.59469234 -48.84438279 46.23274397 -50.80915833 54.3380127 C-52.9437087 64.9090547 -53.47187975 75.07964767 -53.51171875 85.84375 C-53.5286153 87.59209409 -53.54677197 89.3404264 -53.56611633 91.08874512 C-53.61308336 95.63246983 -53.6432341 100.17614682 -53.66955566 104.72003174 C-53.70494684 110.20289495 -53.76180351 115.68557485 -53.81494904 121.16828918 C-53.89283583 129.4455008 -53.94391402 137.72248299 -54 146 C-66.54 146 -79.08 146 -92 146 C-92 97.16 -92 48.32 -92 -2 C-79.79 -2 -67.58 -2 -55 -2 C-55 5.26 -55 12.52 -55 20 C-54.01 20 -53.02 20 -52 20 C-51.75507812 19.11441406 -51.51015625 18.22882813 -51.2578125 17.31640625 C-48.2100383 9.2805047 -40.7392537 2.58038201 -33 -1 C-22.79514606 -4.82682023 -9.90513889 -4.34435916 0 0 Z " fill="#5573FE" transform="translate(1675,467)"/>
<path d="M0 0 C8.96037874 7.51344351 12.73228141 15.74633153 14.32421875 27.1484375 C15.49035966 43.51422337 16.28935255 61.41494167 6.08984375 75.24609375 C0.21700178 81.57369118 -6.75135082 84.69501029 -15.32421875 85.484375 C-26.8009081 85.60467573 -33.36408521 83.69632218 -41.8515625 76.02734375 C-52.57062076 64.98694327 -53.3610461 51.21438177 -53.20092773 36.53686523 C-52.95171657 28.5014252 -52.18762903 21.4840406 -48.67578125 14.1484375 C-48.14984375 13.02888672 -48.14984375 13.02888672 -47.61328125 11.88671875 C-43.7553301 4.8539953 -37.31219085 -1.28553149 -29.67578125 -3.8515625 C-19.49524123 -5.84774682 -8.81021519 -6.09641168 0 0 Z " fill="#ffffff" transform="translate(359.67578125,498.8515625)"/>


<path d="M0 0 C0.99 0.99 0.99 0.99 2 2 C1.91197519 5.25691785 1.17916338 6.77903184 -0.875 9.3125 C-18.87724484 25.60503444 -42.7199543 35.71765733 -64 47 C-65.34099005 47.71141263 -66.68197301 48.42283862 -68.02294922 49.13427734 C-76.5597852 53.66225722 -85.10146951 58.1810457 -93.64453125 62.69726562 C-104.32002151 68.34091243 -114.99210212 73.99100638 -125.66271973 79.64385986 C-129.22238274 81.52948736 -132.78256475 83.41412376 -136.34375 85.296875 C-155.83739157 95.55706635 -155.83739157 95.55706635 -175.09814453 106.24438477 C-179.59419706 108.80712202 -184.18321793 111.11663351 -188.8359375 113.37890625 C-191.34497693 114.66440176 -193.78369593 115.99902963 -196.2265625 117.40234375 C-197.31904297 118.02979492 -197.31904297 118.02979492 -198.43359375 118.66992188 C-199.87529468 119.50384692 -201.31294583 120.34481968 -202.74609375 121.19335938 C-204.46445739 122.18811229 -206.22919352 123.10191796 -208 124 C-208.66 123.67 -209.32 123.34 -210 123 C-209.33806641 122.59386475 -208.67613281 122.18772949 -207.99414062 121.76928711 C-194.97996283 113.7809734 -181.98789259 105.76082031 -169.04931641 97.65039062 C-161.68295927 93.03811653 -154.28405931 88.48079109 -146.875 83.9375 C-137.97136385 78.47534023 -129.13105424 72.92546939 -120.33422852 67.29321289 C-112.1050165 62.03721242 -103.78924858 56.92675239 -95.46533203 51.82250977 C-89.07564313 47.90132663 -82.70717159 43.95089618 -76.375 39.9375 C-75.62951904 39.46554199 -74.88403809 38.99358398 -74.1159668 38.50732422 C-70.80922649 36.41339646 -67.50289693 34.31882264 -64.19726562 32.22314453 C-11.59729428 -1.07225592 -11.59729428 -1.07225592 0 0 Z " fill="#F79F2A" transform="translate(1353,309)"/>
<path d="M0 0 C0.33 0 0.66 0 1 0 C1.03314301 1.17127441 1.06628601 2.34254883 1.10043335 3.54931641 C1.42024515 14.83646115 1.74352703 26.12350243 2.06982994 37.41046143 C2.23730091 43.2068644 2.40373358 49.00329245 2.56738281 54.79980469 C3.39285361 84.00562351 4.39872644 113.19572032 5.67514896 142.385396 C6.64483387 164.72404087 7.10339644 187.0437721 7.17523193 209.40322876 C7.18332825 211.77691852 7.19437473 214.15060028 7.20855713 216.52426147 C7.22651899 219.87041461 7.23045293 223.21630406 7.23046875 226.5625 C7.24117149 228.04953178 7.24117149 228.04953178 7.25209045 229.56660461 C7.20062841 245.69905739 7.20062841 245.69905739 3 252 C0.5625 252.5 0.5625 252.5 -2 252 C-7.97289835 245.58466474 -7.30163234 233.49119304 -7.265625 225.24609375 C-7.26753845 224.22927017 -7.2694519 223.21244659 -7.27142334 222.16481018 C-7.27277816 220.00578566 -7.26913107 217.84675279 -7.26074219 215.68774414 C-7.25038068 212.55268278 -7.26047558 209.41824252 -7.2734375 206.28320312 C-7.28406444 191.93899353 -6.70618129 177.65944329 -5.97986794 163.33813095 C-5.1559461 147.05419075 -4.52213345 130.76782668 -3.96484375 114.47265625 C-3.92250988 113.23749708 -3.88017601 112.00233791 -3.8365593 110.72974968 C-3.57673004 103.12550231 -3.32106736 95.52111918 -3.06671143 87.91668701 C-2.80744586 80.18317604 -2.54435315 72.44979446 -2.28166294 64.71639919 C-2.07734587 58.70021409 -1.87357173 52.68401292 -1.67185974 46.66773987 C-1.14889422 31.11050779 -0.58576178 15.55499237 0 0 Z " fill="#F8A02C" transform="translate(960,746)"/>
<path d="M0 0 C1 1 1 1 1.01293945 2.7565918 C0.44970325 8.74348799 -1.1454828 13.45038571 -3.8125 18.8125 C-4.21065918 19.63016846 -4.60881836 20.44783691 -5.01904297 21.2902832 C-9.78094059 30.86427093 -15.34398872 39.93556271 -21 49 C-21.58056152 49.93473145 -22.16112305 50.86946289 -22.75927734 51.83251953 C-26.51030101 57.87028509 -30.28272244 63.89439183 -34.06347656 69.91357422 C-36.64362011 74.02579998 -39.21368994 78.14427858 -41.78393555 82.26269531 C-47.31316933 91.12138306 -52.86500705 99.96512236 -58.44873047 108.78955078 C-64.35959647 118.13810888 -70.21118045 127.52369831 -76.06787109 136.90625 C-77.98762772 139.98018935 -79.90946258 143.05281876 -81.83203125 146.125 C-95.32405842 167.68694376 -108.67887333 189.33223817 -122 211 C-122.33 210.34 -122.66 209.68 -123 209 C-122.15820312 207.01416016 -122.15820312 207.01416016 -120.78125 204.5390625 C-120.26916992 203.60771484 -119.75708984 202.67636719 -119.22949219 201.71679688 C-118.37339355 200.18635742 -118.37339355 200.18635742 -117.5 198.625 C-116.28568677 196.41969551 -115.07217592 194.21394905 -113.859375 192.0078125 C-113.22193359 190.85313477 -112.58449219 189.69845703 -111.92773438 188.50878906 C-108.81984321 182.86543075 -105.78705849 177.18169034 -102.75 171.5 C-102.12778564 170.33758789 -101.50557129 169.17517578 -100.86450195 167.97753906 C-90.03814302 147.74565031 -79.30136819 127.46591491 -68.5625 107.1875 C-68.17984985 106.46506104 -67.79719971 105.74262207 -67.4029541 104.99829102 C-63.46991344 97.57196502 -59.5457298 90.14139944 -55.65112305 82.69482422 C-51.92436245 75.5711712 -48.08005473 68.53330661 -44.10229492 61.54663086 C-42.03196163 57.89339822 -40.08070957 54.21878704 -38.25 50.4375 C-35.24586618 44.31142319 -31.91243002 38.38035917 -28.5625 32.4375 C-28.02463867 31.479646 -27.48677734 30.52179199 -26.93261719 29.53491211 C-16.54815986 11.21465876 -16.54815986 11.21465876 -10.1875 4.375 C-9.43855469 3.55773437 -8.68960937 2.74046875 -7.91796875 1.8984375 C-5.00659469 -0.98328916 -3.81614649 -1.231015 0 0 Z " fill="#F89F2A" transform="translate(1180,138)"/>
<path d="M0 0 C9.4940452 3.10714206 14.74375221 14.96234908 19.4375 23.125 C19.77330078 23.70572266 20.10910156 24.28644531 20.45507812 24.88476562 C34.95202703 50.05499001 48.24916947 75.92884545 61.80615234 101.61230469 C64.14025909 106.03391308 66.47584377 110.45473842 68.8125 114.875 C69.18930908 115.58803284 69.56611816 116.30106567 69.9543457 117.03570557 C75.09047124 126.75044225 80.30192264 136.41956401 85.59521484 146.04980469 C88.72471715 151.76167037 91.66455002 157.53241483 94.53515625 163.37890625 C97.01779933 168.34280778 99.70912914 173.19542496 102.375 178.0625 C102.89022217 179.00448242 103.40544434 179.94646484 103.9362793 180.91699219 C105.87750791 184.4628344 107.81966634 188.00807751 109.77636719 191.54541016 C110.94098415 193.65166142 112.09642366 195.7626887 113.25 197.875 C113.59345459 198.48851318 113.93690918 199.10202637 114.29077148 199.73413086 C115.06807865 201.16592528 115.76253161 202.6422123 116.4375 204.125 C116.1075 204.785 115.7775 205.445 115.4375 206.125 C109.42354388 196.55471406 103.47647727 186.94489662 97.5625 177.3125 C92.40782368 168.91936938 87.21404945 160.55396099 81.93920898 152.23583984 C77.97596133 145.98536134 74.04533678 139.71497579 70.125 133.4375 C69.18261475 131.92869263 69.18261475 131.92869263 68.22119141 130.3894043 C65.64722007 126.26744332 63.07411928 122.14493921 60.50097656 118.02246094 C58.58438186 114.95222552 56.66734443 111.88226727 54.75 108.8125 C53.80954834 107.30659302 53.80954834 107.30659302 52.85009766 105.77026367 C49.56136178 100.50837234 46.25930118 95.25543679 42.9362793 90.01513672 C34.97708098 77.46279233 27.18838761 64.80682636 19.4375 52.125 C18.86402832 51.18881836 18.29055664 50.25263672 17.69970703 49.28808594 C12.35907618 40.55467764 7.13455875 31.78237113 2.3125 22.75 C1.94584229 22.06607178 1.57918457 21.38214355 1.20141602 20.67749023 C-2.26525454 14.0580961 -3.94363185 8.62059303 -3.5625 1.125 C-2.5625 0.125 -2.5625 0.125 0 0 Z " fill="#F89F2A" transform="translate(743.5625,136.875)"/>
<path d="M0 0 C2.30726163 2.1459 3.90617794 4.28494659 5.49609375 7 C5.96571533 7.79438477 6.43533691 8.58876953 6.91918945 9.40722656 C7.42023193 10.2628418 7.92127441 11.11845703 8.4375 12 C12.47330283 18.80915207 16.56651916 25.56975244 20.8125 32.25 C21.80989934 33.82031027 22.80729508 35.39062283 23.8046875 36.9609375 C24.31870117 37.77014648 24.83271484 38.57935547 25.36230469 39.41308594 C28.40650776 44.22172871 31.4218478 49.04841886 34.4375 53.875 C35.07276611 54.89174805 35.70803223 55.90849609 36.36254883 56.95605469 C40.42347254 63.46140283 44.46749159 69.97700744 48.5 76.5 C57.88770524 91.68285232 67.323542 106.8342049 76.9375 121.875 C84.78018681 134.15479036 92.40733245 146.56451142 100 159 C100.46809082 159.7645752 100.93618164 160.52915039 101.41845703 161.31689453 C125.40742697 200.55013321 125.40742697 200.55013321 124 210 C123.34 210.66 122.68 211.32 122 212 C118.74308215 211.91197519 117.22096816 211.17916338 114.6875 209.125 C113.76684887 208.10520183 112.87432321 207.0597857 112 206 C111.45988281 205.3503125 110.91976563 204.700625 110.36328125 204.03125 C93.58592526 182.36489509 81.96015529 155.62851378 69.39160156 131.38916016 C66.07220736 125.0044407 62.65771779 118.67882533 59.1875 112.375 C54.48170988 103.82212923 49.96203912 95.18149645 45.5 86.5 C40.71101149 77.18481495 35.83468693 67.92950303 30.77832031 58.75585938 C27.64504939 53.0555964 24.57181712 47.32634576 21.53515625 41.57421875 C20.94488899 40.45627678 20.94488899 40.45627678 20.34269714 39.31575012 C18.3888674 35.61268677 16.43889797 31.9076343 14.49291992 28.20043945 C13.76144054 26.81042765 13.02943328 25.4206935 12.296875 24.03125 C11.94248856 23.35897873 11.58810211 22.68670746 11.22297668 21.99406433 C8.11238805 16.133125 4.80795414 10.39544614 1.44238281 4.67773438 C0 2 0 2 0 0 Z " fill="#F89F2A" transform="translate(1057,731)"/>
<path d="M0 0 C0.99 0.495 0.99 0.495 2 1 C-8.10458143 7.43769132 -18.25243868 13.7919946 -28.5 20 C-37.08554702 25.20377097 -45.60209691 30.50296157 -54.078125 35.8828125 C-59.59840707 39.38528975 -65.14215127 42.84989042 -70.6875 46.3125 C-71.69312988 46.9405957 -72.69875977 47.56869141 -73.73486328 48.21582031 C-77.85705438 50.78997687 -81.97981198 53.36322542 -86.10253906 55.93652344 C-89.17277449 57.85311815 -92.24274631 59.77013381 -95.3125 61.6875 C-96.3128125 62.31229248 -97.313125 62.93708496 -98.34375 63.58081055 C-104.47018007 67.41033183 -110.58346701 71.25990298 -116.6875 75.125 C-162.46589865 104.07984921 -162.46589865 104.07984921 -181.6875 114.3125 C-182.68378418 114.84472168 -182.68378418 114.84472168 -183.70019531 115.38769531 C-189.90284192 118.61669165 -194.95575541 120.41436733 -202 120 C-203 119 -203 119 -203.2734375 116.16796875 C-202.95120194 112.43463959 -202.4225715 111.69740291 -199.625 109.3125 C-187.53651478 99.40483015 -173.09670889 92.29276227 -159.3984375 84.91796875 C-155.19788036 82.65641745 -151.02698069 80.34773177 -146.86816406 78.01049805 C-140.09296929 74.20332232 -133.26665856 70.58676879 -126.2902832 67.16333008 C-120.71252468 64.40523166 -115.26125721 61.44120118 -109.8125 58.4375 C-101.03345155 53.60000165 -92.16586924 48.95323633 -83.25 44.375 C-74.38238581 39.82132536 -65.58331379 35.17863433 -56.90039062 30.28027344 C-52.73739638 27.93932625 -48.5386442 25.73152559 -44.25 23.625 C-38.09468999 20.60096268 -32.07673961 17.35758975 -26.0625 14.0625 C-25.12083984 13.54743896 -24.17917969 13.03237793 -23.20898438 12.50170898 C-19.66279843 10.5603506 -16.11724085 8.61800976 -12.57958984 6.66113281 C-10.47333858 5.49651585 -8.3623113 4.34107634 -6.25 3.1875 C-5.63648682 2.84404541 -5.02297363 2.50059082 -4.39086914 2.14672852 C-2.95907472 1.36942135 -1.4827877 0.67496839 0 0 Z " fill="#F89F2A" transform="translate(769,651)"/>
<path d="M0 0 C22.39052852 0.73411569 44.76984893 19.58561607 62.95166016 31.07666016 C67.9571133 34.2348341 72.97927143 37.36619071 78 40.5 C80.00008231 41.74986829 82.00008228 42.99986837 84 44.25 C84.99 44.86875 85.98 45.4875 87 46.125 C144 81.75 144 81.75 147.00219727 83.62646484 C148.99476325 84.87175773 150.98743839 86.11687598 152.98022461 87.36181641 C158.09489113 90.55738474 163.20740977 93.75631061 168.31640625 96.9609375 C178.14877404 103.12429489 187.98561895 109.26422938 197.9765625 115.16796875 C201.05006511 117.03033661 204.02498404 118.98538709 207 121 C206.01 121.495 206.01 121.495 205 122 C202.64697266 120.97460938 202.64697266 120.97460938 199.6640625 119.34375 C198.55192383 118.74127441 197.43978516 118.13879883 196.29394531 117.51806641 C195.07093769 116.84542461 193.84795668 116.17273441 192.625 115.5 C191.35560682 114.80953114 190.08574233 114.11992812 188.81542969 113.43115234 C186.17553638 111.99885131 183.53772072 110.562829 180.90136719 109.12402344 C175.03477616 105.92561114 169.14198315 102.77634844 163.25 99.625 C162.11393311 99.0163208 160.97786621 98.4076416 159.80737305 97.78051758 C141.7392381 88.10300159 123.64254626 78.47750193 105.49755859 68.94482422 C93.80292904 62.79846287 82.12715721 56.61632631 70.45672607 50.42416382 C66.99909342 48.58965944 63.5407754 46.75650462 60.07958984 44.92871094 C5.32665006 16.0087197 5.32665006 16.0087197 -1 6 C-1.25 3.3125 -1.25 3.3125 -1 1 C-0.67 0.67 -0.34 0.34 0 0 Z " fill="#F89F2A" transform="translate(567,309)"/>
<path d="M0 0 C4.55242985 1.35563336 8.34599177 3.20608578 12.4296875 5.62109375 C17.36558248 8.50234865 22.33227121 11.29710618 27.3828125 13.97265625 C28.00532394 14.30250519 28.62783539 14.63235413 29.26921082 14.97219849 C31.22031725 16.00386585 33.17265717 17.03317466 35.125 18.0625 C37.95238129 19.55753935 40.77891813 21.05417216 43.60546875 22.55078125 C44.31198074 22.9245993 45.01849274 23.29841736 45.74641418 23.68356323 C52.65911378 27.34331836 59.5485261 31.04584428 66.4375 34.75 C76.24616973 40.01977218 86.10330817 45.18691109 95.99438477 50.30004883 C103.57456231 54.22977404 111.0722723 58.29437929 118.55224609 62.41088867 C125.81001365 66.38879124 133.1430918 70.20910407 140.5 74 C152.43326678 80.15638498 164.27548128 86.45427344 176 93 C176.86157715 93.48098145 177.7231543 93.96196289 178.61083984 94.45751953 C209.10657403 111.57217888 209.10657403 111.57217888 211.9375 119.6875 C211.9684375 120.8321875 211.9684375 120.8321875 212 122 C210 124 210 124 207.98193359 124.15234375 C200.9644462 123.53909758 195.7559767 121.37686752 189.625 118 C188.6445874 117.4738208 187.6641748 116.9476416 186.65405273 116.40551758 C173.82143661 109.41714103 161.40508442 101.71254441 149 94 C147.37916504 92.99453125 147.37916504 92.99453125 145.72558594 91.96875 C138.80184231 87.66993043 131.89560765 83.3437873 125 79 C124.15115234 78.46536133 123.30230469 77.93072266 122.42773438 77.37988281 C116.18936417 73.4482817 109.95809581 69.50548995 103.72753906 65.56152344 C92.23564963 58.2887359 80.71679233 51.06022704 69.1796875 43.859375 C65.09856084 41.31205139 61.02054144 38.75987271 56.9453125 36.203125 C47.00122487 29.96800052 37.0335536 23.77781548 27 17.6875 C20.17386633 13.54277113 13.34978678 9.39564863 6.5625 5.1875 C5.88767578 4.77266357 5.21285156 4.35782715 4.51757812 3.93041992 C2.99402001 2.98145505 1.49380318 1.99514609 0 1 C0 0.67 0 0.34 0 0 Z " fill="#F89F29" transform="translate(1143,647)"/>
<path d="M0 0 C2.4375 0.0625 2.4375 0.0625 5 1 C10.35936332 7.31639248 9.14851394 17.32400277 9.1328125 25.14453125 C9.13376923 26.22659348 9.13472595 27.3086557 9.13571167 28.42350769 C9.13639098 30.72398944 9.13455407 33.02447313 9.13037109 35.32495117 C9.1251606 38.70821944 9.13024932 42.09134602 9.13671875 45.47460938 C9.14781279 74.97072821 7.95289726 104.43630591 6.7562561 133.90322876 C5.64859008 161.20258738 4.6455256 188.50334794 3.8125 215.8125 C3.78037855 216.8650831 3.78037855 216.8650831 3.74760818 217.93893051 C3.49312054 226.29246449 3.24359726 234.64614113 3 243 C2.67 243 2.34 243 2 243 C0.00693716 194.58651697 -1.92150763 146.170948 -3.67553711 97.74815369 C-3.88197317 92.08902444 -4.10335336 86.43105499 -4.34765625 80.7734375 C-4.93256441 66.87241118 -5.15179542 52.97218187 -5.23016357 39.05981445 C-5.2432092 37.00639207 -5.26101764 34.95299345 -5.28399658 32.8996582 C-5.51700523 10.55105007 -5.51700523 10.55105007 -2 2 C-1.34 1.34 -0.68 0.68 0 0 Z " fill="#F89F2B" transform="translate(958,82)"/>
<path d="M0 0 C0.495 0.99 0.495 0.99 1 2 C0.01031043 4.21742766 -1.03681881 6.29615666 -2.19921875 8.421875 C-2.54529175 9.06939224 -2.89136475 9.71690948 -3.2479248 10.38404846 C-4.38682962 12.51022453 -5.53707263 14.63003976 -6.6875 16.75 C-7.47828247 18.22124266 -8.26839929 19.6928433 -9.05786133 21.16479492 C-13.85971848 30.10359122 -18.72348217 39.00866525 -23.61010742 47.90136719 C-28.14504344 56.18772839 -32.46599345 64.58147257 -36.79199219 72.97827148 C-40.41640763 79.99621295 -44.12438692 86.95795121 -47.9375 93.875 C-52.60444461 102.34324626 -57.08049106 110.90109245 -61.5 119.5 C-66.87154964 129.94697082 -72.36805881 140.31336596 -78.0390625 150.6015625 C-80.12784616 154.3926281 -82.17967443 158.20124699 -84.2109375 162.0234375 C-89.34933137 171.67502723 -94.57016042 181.25420435 -100.3125 190.5625 C-100.76753906 191.31748779 -101.22257813 192.07247559 -101.69140625 192.8503418 C-104.88552686 197.91056771 -108.690574 203.03844809 -114 206 C-116.74731445 205.68188477 -116.74731445 205.68188477 -119 205 C-119.78164822 194.44774899 -114.66225015 185.90136796 -109.6875 176.875 C-109.16969971 175.93124512 -108.65189941 174.98749023 -108.1184082 174.01513672 C-102.43471488 163.78835806 -96.20884732 153.91517294 -89.93212891 144.04541016 C-86.72082879 138.98377791 -83.54916284 133.89747116 -80.375 128.8125 C-79.75351074 127.81855225 -79.13202148 126.82460449 -78.49169922 125.80053711 C-74.41270521 119.2746813 -70.35680283 112.73489837 -66.3125 106.1875 C-62.28337085 99.66606319 -58.22534955 93.16439821 -54.125 86.6875 C-43.63649676 70.11847848 -33.274253 53.47335375 -23.01220703 36.76318359 C-18.24716357 29.01018997 -13.4485255 21.27920601 -8.625 13.5625 C-7.98820313 12.54349609 -7.35140625 11.52449219 -6.6953125 10.47460938 C-2.27220857 3.40831285 -2.27220857 3.40831285 0 0 Z " fill="#F89F29" transform="translate(859,737)"/>
<path d="M0 0 C1.11847242 28.37134346 1.11847242 28.37134346 -7.875 40 C-12.59421338 44.98679764 -18.11871677 47.68682768 -24.953125 48.23828125 C-31.84089993 48.39333779 -37.4022112 48.32736865 -43 44 C-46.76470185 40.38626364 -48.83668186 37.15526401 -49.23828125 31.85546875 C-49.43693636 22.03772387 -49.43693636 22.03772387 -47.5 17.4375 C-39.32076915 9.46274992 -29.77146378 7.75823139 -18.875 5.5625 C-13.79752971 4.51467957 -9.38373493 3.12515722 -4.76953125 0.76953125 C-3 0 -3 0 0 0 Z " fill="#ffffff" transform="translate(1057,540)"/>
<path d="M0 0 C7.28483497 4.82296386 10.21208332 11.91174869 11.9765625 20.30859375 C11.9765625 22.94859375 11.9765625 25.58859375 11.9765625 28.30859375 C-8.4834375 28.30859375 -28.9434375 28.30859375 -50.0234375 28.30859375 C-47.82562408 17.31952663 -45.28731658 8.2107329 -36.0234375 1.30859375 C-26.35307215 -4.93453484 -10.23787843 -5.0837575 0 0 Z " fill="#ffffff" transform="translate(901.0234375,494.69140625)"/>
<path d="M0 0 C6.41021464 4.48841459 9.18287438 10.99660856 10.98046875 18.38671875 C10.98046875 21.68671875 10.98046875 24.98671875 10.98046875 28.38671875 C-9.14953125 28.38671875 -29.27953125 28.38671875 -50.01953125 28.38671875 C-47.8162057 17.37009099 -45.56191219 8.68147017 -36.06640625 2.015625 C-26.20840757 -4.42858525 -10.71673766 -5.25691951 0 0 Z " fill="#ffffff" transform="translate(1504.01953125,494.61328125)"/>
<path d="M0 0 C2.22382855 3.33574283 3.05978249 6.48384215 4.0234375 10.30859375 C4.21088531 11.03055435 4.39833313 11.75251495 4.59146118 12.49635315 C5.19137315 14.80871423 5.78386901 17.12287983 6.375 19.4375 C8.69434966 28.49432926 11.03740754 37.46674321 14.08886719 46.3112793 C15.5284028 50.55929797 16.73106347 54.868632 17.9375 59.1875 C18.46041312 61.03790868 18.98385643 62.88816761 19.5078125 64.73828125 C19.76208008 65.63756348 20.01634766 66.5368457 20.27832031 67.46337891 C21.26763005 70.94068886 22.28759537 74.40799504 23.3125 77.875 C25.92698849 86.7222423 28.49654822 95.58241412 31.06079102 104.44433594 C33.22200245 111.90745177 35.3993054 119.36555028 37.59815979 126.81767273 C38.84231549 131.03574443 40.08235281 135.25502311 41.32229614 139.47433472 C41.93060616 141.54027553 42.54079068 143.60566553 43.15304565 145.67044067 C46.27433368 156.19958563 49.2912689 166.74139519 51.90234375 177.41015625 C52.11227966 178.24781525 52.32221558 179.08547424 52.53851318 179.94851685 C54.29907198 187.36098746 54.52468997 194.4094851 54 202 C52.35 202.33 50.7 202.66 49 203 C45.37018237 197.68053815 42.86045676 192.61714463 41.0234375 186.453125 C40.77395355 185.63805481 40.5244696 184.82298462 40.26742554 183.98321533 C37.20112441 173.69759071 34.91564196 163.22959685 32.625 152.75 C32.14582273 150.58764001 31.66624262 148.42536925 31.1862793 146.26318359 C28.0961296 132.28275611 25.16156088 118.27334533 22.33117676 104.23825073 C19.71392105 91.2609411 16.85588485 78.35303015 13.86523438 65.45703125 C11.49460393 55.22822958 9.25722811 44.97670616 7.09082031 34.70239258 C5.3641161 26.56161685 3.49279633 18.46402675 1.47192383 10.39111328 C1.27751709 9.6020459 1.08311035 8.81297852 0.8828125 8 C0.71152832 7.319375 0.54024414 6.63875 0.36376953 5.9375 C0 4 0 4 0 0 Z " fill="#F8A12F" transform="translate(993,736)"/>
<path d="M0 0 C1.13361359 3.38516418 0.84733553 5.57722972 -0.0390625 9.0078125 C-0.41115845 10.47299316 -0.41115845 10.47299316 -0.79077148 11.96777344 C-1.06606689 13.0096582 -1.3413623 14.05154297 -1.625 15.125 C-1.90351807 16.20813477 -2.18203613 17.29126953 -2.46899414 18.40722656 C-4.23965549 25.24724638 -6.10815153 32.05699708 -8.03369141 38.85473633 C-12.52975378 54.87129317 -16.34443494 71.08937315 -20.15844727 87.27978516 C-21.69075121 93.76477007 -23.30534128 100.22700277 -24.9375 106.6875 C-27.05242087 115.05934331 -29.03166089 123.45327713 -30.9375 131.875 C-34.72558379 148.49196119 -38.92211041 165.0331429 -44.1875 181.25 C-44.52587891 182.31250977 -44.52587891 182.31250977 -44.87109375 183.39648438 C-46.57145679 188.44320142 -48.56463981 193.51172433 -53.25 196.375 C-53.8275 196.58125 -54.405 196.7875 -55 197 C-57.89532687 194.54495424 -57.98684884 194.14186459 -58.3671875 190.0390625 C-58.16021352 184.26472095 -56.68992277 178.91064778 -55.125 173.375 C-54.81256348 172.24529785 -54.50012695 171.1155957 -54.17822266 169.95166016 C-50.62284065 157.31547713 -46.54701183 144.84683884 -42.44042969 132.38183594 C-40.04983089 125.12020149 -37.69645373 117.84640348 -35.33612061 110.57489014 C-34.50033536 108.00103277 -33.66365771 105.42746728 -32.82666016 102.85400391 C-28.24790442 88.77552876 -23.69445356 74.68906431 -19.15869141 60.59667969 C-18.00792907 57.02461252 -16.85389949 53.45361473 -15.69921875 49.8828125 C-10.34132247 33.29299075 -5.13346003 16.66036118 0 0 Z " fill="#F8A02D" transform="translate(919,740)"/>
<path d="M0 0 C2.79907671 1.27570604 4.83368832 2.5891678 6.98925781 4.77807617 C7.54373596 5.33593307 8.09821411 5.89378998 8.66949463 6.46855164 C9.55239166 7.37163811 9.55239166 7.37163811 10.453125 8.29296875 C11.07217712 8.91722244 11.69122925 9.54147614 12.32904053 10.18464661 C14.30751147 12.1808997 16.27918743 14.183688 18.25 16.1875 C20.83514099 18.80937082 23.42345811 21.42804385 26.015625 24.04296875 C26.94810059 24.98382828 26.94810059 24.98382828 27.89941406 25.94369507 C31.56439822 29.62081616 35.30383932 33.13811587 39.26855469 36.4934082 C42.51629056 39.31937804 45.4875821 42.42782126 48.5 45.5 C52.84231819 49.88915859 57.19070501 54.15199156 61.9140625 58.1328125 C65.50319676 61.34555814 68.8372491 64.81840239 72.22314453 68.24267578 C75.06673796 71.10606795 77.91892769 73.88892177 81 76.5 C85.27566373 80.12344384 89.16818168 84.11348471 93.08203125 88.11914062 C95.79639396 90.87728338 98.55330896 93.50635808 101.5 96.015625 C107.45261302 101.16506249 112.98296571 106.75961812 118.55419922 112.31396484 C120.4886879 114.23874468 122.43361055 116.15255762 124.37890625 118.06640625 C139.80243863 133.35071212 139.80243863 133.35071212 143 140 C142.68945312 142.80566406 142.68945312 142.80566406 142 145 C140 145.875 140 145.875 137 146 C133.99378429 144.43093591 131.54799382 142.21840258 129 140 C128.08863281 139.20980469 127.17726563 138.41960937 126.23828125 137.60546875 C119.23315866 131.40554602 112.88445524 124.70731948 106.61669922 117.77392578 C103.67500845 114.54615092 100.67612308 111.3717478 97.6875 108.1875 C93.63531664 103.85825356 89.63170236 99.50557881 85.76171875 95.01171875 C82.95894003 91.81120646 80.06702469 88.69235428 77.18676758 85.56176758 C73.53515025 81.59071952 69.92281421 77.58600437 66.3203125 73.5703125 C63.68920265 70.65571607 61.03351406 67.76457147 58.375 64.875 C55.4370018 61.68130656 52.51950226 58.4760467 49.6875 55.1875 C45.62858592 50.49960166 41.35512404 46.0112177 37.11401367 41.48901367 C34.19167583 38.36736359 31.28802528 35.24321308 28.5 32 C26.23608763 29.38573235 23.92617828 26.83396796 21.54296875 24.328125 C20.91132812 23.65910156 20.2796875 22.99007812 19.62890625 22.30078125 C18.35563101 20.95577219 17.07841133 19.61448392 15.796875 18.27734375 C15.20777344 17.65472656 14.61867188 17.03210938 14.01171875 16.390625 C13.48022217 15.83407227 12.94872559 15.27751953 12.40112305 14.70410156 C10.9192982 12.90184726 9.96190859 11.11880257 9 9 C8.34 9 7.68 9 7 9 C5.2734375 7.28515625 5.2734375 7.28515625 3.375 5.0625 C2.74335937 4.33160156 2.11171875 3.60070312 1.4609375 2.84765625 C0 1 0 1 0 0 Z " fill="#F89F2B" transform="translate(1102,706)"/>
<path d="M0 0 C0.70382812 0.24621094 1.40765625 0.49242187 2.1328125 0.74609375 C3.15392132 3.87976873 3.38833288 5.23918311 1.87915039 8.2331543 C-5.06261926 17.25786103 -12.96309212 25.23086367 -21.06030273 33.22045898 C-23.43546249 35.56429257 -25.79962999 37.91878258 -28.16210938 40.27539062 C-29.68948127 41.79359567 -31.21745544 43.31119508 -32.74609375 44.828125 C-33.44215225 45.51993362 -34.13821075 46.21174225 -34.85536194 46.92451477 C-38.8104002 50.82292997 -42.85877727 54.55917317 -47.07615662 58.17277527 C-49.98082276 60.72435881 -52.66660718 63.48216649 -55.3671875 66.24609375 C-59.35239769 70.28146105 -63.38237899 74.14032382 -67.7109375 77.80859375 C-70.71333474 80.50639997 -73.52979098 83.37653632 -76.3671875 86.24609375 C-83.07881162 93.03361976 -83.07881162 93.03361976 -86.7421875 96.12109375 C-91.52321013 100.1697044 -95.85505891 104.68412915 -100.23779297 109.15380859 C-103.24044788 112.1977153 -106.26832002 115.1326613 -109.5234375 117.90625 C-115.62101033 123.16385106 -121.19922677 128.97287727 -126.8671875 134.68359375 C-128.03492124 135.85635384 -129.20288824 137.02888173 -130.37109375 138.20117188 C-133.20581984 141.04681064 -136.03737574 143.89556828 -138.8671875 146.74609375 C-139.5271875 146.41609375 -140.1871875 146.08609375 -140.8671875 145.74609375 C-140.22652344 145.11703125 -139.58585937 144.48796875 -138.92578125 143.83984375 C-134.43649965 139.39739519 -130.0750084 134.92993428 -125.96875 130.1328125 C-123.04598137 126.81346002 -120.01754263 123.59683782 -116.9921875 120.37109375 C-112.31890654 115.38532305 -107.69444907 110.36507417 -103.140625 105.26953125 C-100.40881157 102.23731221 -97.64004341 99.24074348 -94.8671875 96.24609375 C-90.58735792 91.62264292 -86.34959999 86.96516881 -82.14453125 82.2734375 C-79.5690894 79.41527133 -76.97029054 76.57902758 -74.3671875 73.74609375 C-69.49772 68.44490896 -64.67295683 63.10504516 -59.8671875 57.74609375 C-54.59360016 51.86547477 -49.29033788 46.01401807 -43.94482422 40.19873047 C-41.14605389 37.15109415 -38.37257167 34.0829527 -35.6171875 30.99609375 C-34.03533402 29.24475597 -32.45178542 27.49494877 -30.8671875 25.74609375 C-30.32578125 25.14216797 -29.784375 24.53824219 -29.2265625 23.91601562 C-7.14915672 -0.63309971 -7.14915672 -0.63309971 0 0 Z " fill="#F89F2B" transform="translate(1241.8671875,228.25390625)"/>
<path d="M0 0 C0 1.32 0 2.64 0 4 C-0.59723877 4.15033691 -1.19447754 4.30067383 -1.80981445 4.45556641 C-13.9089203 7.51649327 -25.86997609 10.80113352 -37.74609375 14.63671875 C-44.66111372 16.86929546 -51.66092183 18.79845809 -58.66259766 20.73730469 C-61.75474306 21.59387451 -64.84629456 22.45254411 -67.9375 23.3125 C-69.02248779 23.61422119 -70.10747559 23.91594238 -71.2253418 24.22680664 C-78.1652209 26.16972678 -85.05751596 28.23097612 -91.9375 30.375 C-101.82973696 33.44104595 -111.80343421 36.15939115 -121.8125 38.8125 C-122.5445163 39.00745056 -123.27653259 39.20240112 -124.0307312 39.40325928 C-146.21058225 45.29746744 -146.21058225 45.29746744 -153.4375 45.25 C-154.24058594 45.25515625 -155.04367187 45.2603125 -155.87109375 45.265625 C-158 45 -158 45 -161 43 C-160.62267241 40.6565971 -160.34116541 39.32966545 -158.609375 37.65625 C-147.80127852 30.93524883 -134.56316725 28.76730411 -122.3125 25.8125 C-121.52232483 25.62091309 -120.73214966 25.42932617 -119.91802979 25.23193359 C-96.12776924 19.4769012 -72.16163268 14.53456889 -48.203125 9.5390625 C-47.22997345 9.33597473 -46.2568219 9.13288696 -45.25418091 8.92364502 C-40.57312221 7.94695051 -35.89154428 6.97297224 -31.20849609 6.00585938 C-29.50608027 5.65284793 -27.8037656 5.29934826 -26.1015625 4.9453125 C-25.29733856 4.77811707 -24.49311462 4.61092163 -23.66452026 4.43865967 C-18.20578567 3.28972974 -12.803935 1.98835333 -7.42333984 0.51123047 C-4.88266143 -0.02475388 -2.58895349 -0.0921109 0 0 Z " fill="#E8982E" transform="translate(719,604)"/>
<path d="M0 0 C9.48830664 -0.17902465 14.9757271 6.24257144 21.58605957 12.4145813 C24.16320608 14.91804919 26.70437918 17.45281678 29.234375 20.00390625 C30.15663879 20.92662827 31.07890259 21.84935028 32.02911377 22.80003357 C33.96149885 24.73396517 35.89053537 26.67115034 37.81689453 28.61108398 C40.26459581 31.0758321 42.71888673 33.53388757 45.17550278 35.98974705 C47.55209485 38.36667881 49.92441571 40.7478492 52.296875 43.12890625 C53.16681091 43.99995499 54.03674683 44.87100372 54.93304443 45.76844788 C59.29278328 50.16190701 63.50031024 54.62364985 67.53692627 59.31578064 C69.25779288 61.29675863 71.06391404 63.16331179 72.9375 65 C73.60523438 65.66 74.27296875 66.32 74.9609375 67 C75.63382813 67.66 76.30671875 68.32 77 69 C80.93768245 72.86224792 84.81192861 76.71913692 88.40625 80.90625 C92.52404575 85.68700152 97.00537571 90.07638084 101.5 94.5 C110.59965357 103.45589917 110.59965357 103.45589917 114.28515625 107.78125 C119.49024842 113.84502336 125.26945068 119.37438699 130.9375 125 C132.11026009 126.16773374 133.28278798 127.33570074 134.45507812 128.50390625 C137.30071689 131.33863234 140.14947453 134.17018824 143 137 C142.67 137.66 142.34 138.32 142 139 C141.5373877 138.56244385 141.07477539 138.1248877 140.59814453 137.67407227 C132.14819432 129.68703237 123.69166901 121.72424845 115 114 C109.59482556 109.15731526 104.21636756 104.28785296 98.875 99.375 C95.00632178 95.81746901 91.09665875 92.31710425 87.125 88.875 C83.84568857 85.98148991 80.63893288 83.00911641 77.421875 80.046875 C74.64505943 77.49444857 71.85019283 74.97016712 69 72.5 C65.06832786 69.09255081 61.24638756 65.56870327 57.41967773 62.04467773 C54.66526572 59.51259884 51.89257501 57.00964732 49.0625 54.5625 C44.92614348 50.97880907 40.92122782 47.25679808 36.91821289 43.52563477 C34.08082175 40.88887169 31.2086598 38.31215343 28.26953125 35.7890625 C23.01821149 31.21318195 18.11253327 26.29658679 13.1875 21.375 C12.23772722 20.43740172 11.28785794 19.49990118 10.33789062 18.5625 C9.43619141 17.66273438 8.53449219 16.76296875 7.60546875 15.8359375 C6.79231201 15.02688965 5.97915527 14.2178418 5.14135742 13.38427734 C2.02818874 9.9179445 0.07911766 7.39774529 -0.1875 2.6875 C-0.125625 1.800625 -0.06375 0.91375 0 0 Z " fill="#F89F2B" transform="translate(667,235)"/>
<path d="M0 0 C0 3 0 3 -2.64282227 5.9675293 C-3.85988351 7.17731741 -5.085035 8.37899903 -6.31640625 9.57421875 C-6.96568588 10.21688187 -7.61496552 10.85954498 -8.28392029 11.52168274 C-10.3698327 13.58414161 -12.46557227 15.63624649 -14.5625 17.6875 C-16.63277354 19.72249988 -18.70083658 21.7596725 -20.76609802 23.79975891 C-22.05176574 25.0687085 -23.34051754 26.33454423 -24.63294983 27.59660339 C-28.41604883 31.31818239 -31.95698554 35.17898315 -35.4236908 39.19636536 C-37.32236319 41.3688524 -39.31745101 43.41542599 -41.375 45.4375 C-42.13296875 46.18773437 -42.8909375 46.93796875 -43.671875 47.7109375 C-45.22395833 49.23697917 -46.77604167 50.76302083 -48.328125 52.2890625 C-52.4765127 56.39511971 -56.42299977 60.57810169 -60.2265625 65.00390625 C-64.15714065 69.42797108 -68.463371 73.49980444 -72.68359375 77.64453125 C-73.39644531 78.34964844 -74.10929688 79.05476562 -74.84375 79.78125 C-75.47474609 80.40064453 -76.10574219 81.02003906 -76.75585938 81.65820312 C-78.63357078 83.61762521 -80.40609202 85.61260141 -82.17626953 87.66748047 C-86.3677617 92.48738267 -90.83216491 97.0122973 -95.3359375 101.5390625 C-96.21472565 102.42355072 -97.09351379 103.30803894 -97.99893188 104.21932983 C-99.84815384 106.07794693 -101.69879401 107.93515394 -103.55078125 109.79101562 C-105.43469796 111.67933192 -107.31371769 113.57231839 -109.18847656 115.46972656 C-111.91768245 118.2295225 -114.65681421 120.97910803 -117.3984375 123.7265625 C-118.2268515 124.5673233 -119.0552655 125.40808411 -119.90878296 126.27432251 C-132.29058564 138.60953533 -132.29058564 138.60953533 -139.5625 139.375 C-140.7690625 139.189375 -140.7690625 139.189375 -142 139 C-142.43060312 136.12931253 -142.50570305 133.89785703 -141.05078125 131.31469727 C-136.58016648 125.37656156 -131.43632918 120.16557853 -126.16015625 114.9543457 C-124.62962334 113.44206819 -123.10724468 111.92194302 -121.5859375 110.40039062 C-116.78522391 105.61715513 -111.92766266 100.94300268 -106.77880859 96.53149414 C-103.94988077 94.0958828 -101.23032443 91.54490341 -98.5 89 C-94.41800101 85.21262044 -90.30226124 81.48229355 -86.08984375 77.83984375 C-83.35629441 75.43329844 -80.67885994 72.96696804 -78 70.5 C-74.69973124 67.46109823 -71.39050653 64.438439 -68 61.5 C-64.12182987 58.13677362 -60.34472189 54.66664329 -56.56689453 51.19189453 C-51.74415109 46.75776372 -46.8765888 42.3748176 -42 38 C-40.33307353 36.50028872 -38.66640851 35.00028679 -37 33.5 C-34.52497766 31.27170886 -32.04928246 29.0442116 -29.5703125 26.8203125 C-24.51425396 22.2811673 -19.491163 17.70765396 -14.48779297 13.1105957 C-9.68948357 8.70578196 -4.85108215 4.34665547 0 0 Z " fill="#F89F2A" transform="translate(809,706)"/>
<path d="M0 0 C4.89327182 2.05618764 6.61246677 5.43205716 9 10 C10.05207665 12.627423 10.94795043 15.11565075 11.75 17.8125 C11.98968506 18.59455811 12.22937012 19.37661621 12.47631836 20.18237305 C18.16582159 39.23522299 22.91664542 58.65214708 27.18994141 78.06665039 C28.99208568 86.1793776 31.08528025 94.21028277 33.23876953 102.23632812 C35.24915144 109.81806621 37.02174898 117.43733885 38.7578125 125.0859375 C40.90386283 134.50650488 43.21521785 143.8696866 45.68359375 153.2109375 C45.99177536 154.37882813 46.29995697 155.54671875 46.61747742 156.75 C47.87947583 161.52019874 49.14650919 166.28898972 50.42358398 171.05517578 C51.37281613 174.60493065 52.3102924 178.15762227 53.24609375 181.7109375 C53.53866562 182.78991302 53.83123749 183.86888855 54.13267517 184.9805603 C54.39367508 185.9774588 54.65467499 186.9743573 54.92358398 188.00146484 C55.15641586 188.87346527 55.38924774 189.7454657 55.62913513 190.64389038 C56.01826156 193.11601591 55.79058049 194.64809907 55 197 C54.77449463 196.26813477 54.54898926 195.53626953 54.31665039 194.78222656 C49.3342948 178.62879956 44.26069914 162.50917187 39.0683136 146.42182922 C35.51708048 135.41113867 32.00149514 124.38895561 28.47927856 113.36895752 C24.84933068 102.0119376 21.21498751 90.65642325 17.55426025 79.3092804 C16.02803448 74.57841974 14.50415922 69.84680297 12.98022461 65.11520386 C12.25605653 62.86929503 11.53067774 60.62377615 10.80395508 58.37869263 C7.2619825 47.43549217 3.77551549 36.48204018 0.57421875 25.43359375 C0.32715179 24.5907634 0.08008484 23.74793304 -0.17446899 22.87956238 C-1.99153794 16.49953534 -3.79294559 9.66943277 -3 3 C-1.49609375 1.1640625 -1.49609375 1.1640625 0 0 Z " fill="#F89F2A" transform="translate(864,143)"/>
<path d="M0 0 C2.475 0.495 2.475 0.495 5 1 C6.56330792 21.67040468 -1.61521068 41.97803754 -7.39784241 61.55430603 C-8.92671689 66.73451441 -10.40821056 71.92696071 -11.875 77.125 C-14.89219314 87.76750273 -18.07284794 98.36150431 -21.23419189 108.96182251 C-24.19051451 118.87714593 -27.12439547 128.7965669 -29.94018555 138.75292969 C-31.13768518 142.98647089 -32.35228042 147.21385397 -33.59765625 151.43359375 C-38.64887449 168.55540659 -43.34692668 185.76663047 -48 203 C-49.26707192 199.38876453 -48.72189306 196.94787934 -47.77734375 193.28515625 C-47.3453064 191.56703735 -47.3453064 191.56703735 -46.90454102 189.81420898 C-46.42585571 187.95711304 -46.42585571 187.95711304 -45.9375 186.0625 C-45.27140167 183.4106306 -44.61479664 180.75647382 -43.9609375 178.1015625 C-43.79358597 177.42353073 -43.62623444 176.74549896 -43.45381165 176.04692078 C-41.82167197 169.37782044 -40.41973047 162.66763071 -39.0625 155.9375 C-36.87235525 145.11578174 -34.54366058 134.3349895 -32.125 123.5625 C-29.47146201 111.73983904 -26.90960501 99.90235046 -24.44030762 88.03982544 C-21.1241764 72.11349944 -17.62967385 56.24727578 -13.82470703 40.42919922 C-13.27230853 38.13228111 -12.7238408 35.8344143 -12.17919922 33.53564453 C-11.39994208 30.25052246 -10.60843219 26.96861701 -9.8125 23.6875 C-9.47387939 22.25591553 -9.47387939 22.25591553 -9.12841797 20.79541016 C-7.31161385 13.4317379 -5.07007185 5.83058263 0 0 Z " fill="#F89F29" transform="translate(1042,141)"/>
<path d="M0 0 C6.08440672 2.15090761 12.30239357 3.65023721 18.5625 5.19946289 C19.8732433 5.52636934 21.18391567 5.85356026 22.49452209 6.18101501 C25.26804737 6.87322358 28.04213427 7.56311765 30.81668091 8.2512207 C34.43042861 9.1475463 38.04306928 10.04824197 41.65536213 10.95041084 C54.97630729 14.27686566 68.30031424 17.58671596 81.66015625 20.75415039 C128.31428302 31.8290332 128.31428302 31.8290332 139.125 39.75805664 C138.25 44.63305664 138.25 44.63305664 137.125 45.75805664 C129.2568517 46.64270294 122.13311942 44.77982511 114.625 42.63305664 C113.48297119 42.3161084 112.34094238 41.99916016 111.16430664 41.67260742 C103.11746458 39.40874367 95.18660629 36.88249634 87.28515625 34.16040039 C83.0585118 32.71310992 78.79092379 31.4372686 74.5 30.19555664 C59.24354317 25.77217994 44.18210731 20.814648 29.125 15.75805664 C8.73634632 8.90343031 8.73634632 8.90343031 -11.875 2.75805664 C-8.21212259 -0.90482077 -4.80686948 -1.82070665 0 0 Z " fill="#EB992C" transform="translate(1217.875,612.241943359375)"/>
<path d="M0 0 C0.78205811 0.16757812 1.56411621 0.33515625 2.36987305 0.5078125 C14.45080493 3.22565166 26.30275989 6.93450538 38.16479492 10.46630859 C42.95847181 11.88261505 47.76474198 13.25255632 52.57250977 14.62011719 C57.53433109 16.03599878 62.48564512 17.48722951 67.4375 18.9375 C90.04873929 25.64683535 90.04873929 25.64683535 112.875 31.5625 C112.875 31.8925 112.875 32.2225 112.875 32.5625 C96.65565423 34.51236671 82.53287163 32.21026959 66.71484375 28.46826172 C62.88877461 27.56574922 59.05608701 26.70088677 55.21875 25.84765625 C50.06131873 24.69960016 44.9080634 23.53531614 39.7578125 22.35546875 C35.05825905 21.27906641 30.35488211 20.22333863 25.6446228 19.19474792 C22.88337235 18.59165805 20.12341316 17.98276378 17.36346436 17.37374878 C15.45654932 16.95539109 13.54788727 16.54502062 11.63916016 16.13500977 C5.29150986 14.72914568 -0.95890634 13.12401502 -7.15625 11.1640625 C-8.34798828 10.78846191 -9.53972656 10.41286133 -10.76757812 10.02587891 C-14.63533865 8.34006182 -17.02318676 6.38968583 -20.125 3.5625 C-19.75 1.625 -19.75 1.625 -19.125 -0.4375 C-13.58400376 -3.20799812 -5.77454966 -1.26766392 0 0 Z " fill="#F19C2C" transform="translate(578.125,432.4375)"/>
<path d="M0 0 C0 3.63 0 7.26 0 11 C-12.50777058 11.17642462 -24.94745125 10.61856025 -37.4375 10 C-47.6159375 9.505 -47.6159375 9.505 -58 9 C-58 31.77 -58 54.54 -58 78 C-70.54 78 -83.08 78 -96 78 C-96 54.9 -96 31.8 -96 8 C-111.12922959 7.14918495 -111.12922959 7.14918495 -126.2578125 6.68359375 C-127.2977536 6.66281265 -128.3376947 6.64203156 -129.40914917 6.62062073 C-132.64771628 6.55657764 -135.88634543 6.49693598 -139.125 6.4375 C-141.35547451 6.39417564 -143.58594333 6.35055766 -145.81640625 6.30664062 C-151.21087686 6.20105181 -156.60540557 6.09905042 -162 6 C-162 5.67 -162 5.34 -162 5 C-154.18201193 4.05341279 -146.42443501 3.79351543 -138.5546875 3.68359375 C-136.88901733 3.65561707 -136.88901733 3.65561707 -135.18969727 3.6270752 C-131.08487065 3.55933925 -126.97992726 3.4988343 -122.875 3.4375 C-113.67625 3.293125 -104.4775 3.14875 -95 3 C-95 27.42 -95 51.84 -95 77 C-83.12 77 -71.24 77 -59 77 C-59 52.25 -59 27.5 -59 2 C-19.53571429 -0.32142857 -19.53571429 -0.32142857 0 0 Z " fill="#D58B2A" transform="translate(1346,535)"/>
<path d="M0 0 C-0.21875 2.3359375 -0.21875 2.3359375 -1 5 C-2.96875 6.4765625 -2.96875 6.4765625 -5.5 7.625 C-6.85931641 8.24375 -6.85931641 8.24375 -8.24609375 8.875 C-11.35772009 10.14613246 -14.46897839 11.28888068 -17.68164062 12.27636719 C-19.7417366 12.91938788 -21.77184063 13.61565637 -23.80859375 14.328125 C-29.93369282 16.3746524 -36.17891961 17.97748028 -42.42919922 19.58935547 C-44.49760961 20.12438169 -46.56322559 20.66938644 -48.62890625 21.21484375 C-55.41124249 22.98316556 -61.99767212 24.4887681 -69 25 C-69 21.7 -69 18.4 -69 15 C-61.7471184 12.20245995 -54.4735505 9.95905768 -46.98022461 7.93139648 C-41.83929626 6.53321368 -36.75915298 5.00528436 -31.6875 3.375 C-6.79797822 -4.53198548 -6.79797822 -4.53198548 0 0 Z " fill="#EB982B" transform="translate(1357,424)"/>
<path d="M0 0 C2.97070312 -0.35644531 2.97070312 -0.35644531 6.78125 -0.328125 C7.80412865 -0.32585907 7.80412865 -0.32585907 8.84767151 -0.32354736 C11.06550973 -0.31417739 13.28239293 -0.28268599 15.5 -0.25 C17.00967806 -0.23811902 18.51936275 -0.22705123 20.02905273 -0.21679688 C30.37049781 -0.12616158 40.68784404 0.18779081 51 1 C51.66 4.3 52.32 7.6 53 11 C33.86 11.66 14.72 12.32 -5 13 C-2 3 -2 3 0 0 Z " fill="#D48C2D" transform="translate(555,534)"/>
<path d="M0 0 C8.91 0 17.82 0 27 0 C26.15646561 4.21767196 25.08061045 7.98805751 23.71484375 12.05078125 C23.49429825 12.70958786 23.27375275 13.36839447 23.04652405 14.04716492 C22.34634445 16.13657177 21.64198992 18.22454302 20.9375 20.3125 C20.46000938 21.73493306 19.98279292 23.15745818 19.50585938 24.58007812 C18.34041068 28.05445656 17.17121529 31.52756063 16 35 C14.68 35 13.36 35 12 35 C10.28692579 30.33840312 8.57803719 25.67530186 6.87304688 21.01074219 C6.29217106 19.42340482 5.71014411 17.83648823 5.12695312 16.25 C4.28995194 13.97244574 3.45707244 11.69342126 2.625 9.4140625 C2.36251465 8.70255035 2.1000293 7.99103821 1.82958984 7.25796509 C0 2.22774341 0 2.22774341 0 0 Z " fill="#C78022" transform="translate(492,533)"/>
<path d="M0 0 C10.89 0 21.78 0 33 0 C33 5.94 33 11.88 33 18 C32.505 16.515 32.505 16.515 32 15 C30.97229492 15.00785522 30.97229492 15.00785522 29.92382812 15.01586914 C26.78256163 15.03681445 23.64130989 15.0497156 20.5 15.0625 C19.42234375 15.07087891 18.3446875 15.07925781 17.234375 15.08789062 C11.38671618 15.10571885 5.78136329 14.89105963 0 14 C0 9.38 0 4.76 0 0 Z " fill="#CB862C" transform="translate(1383,533)"/>
<path d="M0 0 C0.33 0 0.66 0 1 0 C1 25.08 1 50.16 1 76 C-11.54 76 -24.08 76 -37 76 C-37 52.9 -37 29.8 -37 6 C-52.12922959 5.14918495 -52.12922959 5.14918495 -67.2578125 4.68359375 C-68.2977536 4.66281265 -69.3376947 4.64203156 -70.40914917 4.62062073 C-73.64771628 4.55657764 -76.88634543 4.49693598 -80.125 4.4375 C-82.35547451 4.39417564 -84.58594333 4.35055766 -86.81640625 4.30664062 C-92.21087686 4.20105181 -97.60540557 4.09905042 -103 4 C-103 3.67 -103 3.34 -103 3 C-95.18201193 2.05341279 -87.42443501 1.79351543 -79.5546875 1.68359375 C-77.88901733 1.65561707 -77.88901733 1.65561707 -76.18969727 1.6270752 C-72.08487065 1.55933925 -67.97992726 1.4988343 -63.875 1.4375 C-54.67625 1.293125 -45.4775 1.14875 -36 1 C-36 25.42 -36 49.84 -36 75 C-24.12 75 -12.24 75 0 75 C0 50.25 0 25.5 0 0 Z " fill="#8C9DEA" transform="translate(1287,537)"/>


<path d="M0 0 C5.61 0 11.22 0 17 0 C15.55613874 7.21930632 13.42211826 14.05110733 11 21 C9.68 21 8.36 21 7 21 C5.82807565 17.87694627 4.66336124 14.75125261 3.5 11.625 C3.16613281 10.73554687 2.83226562 9.84609375 2.48828125 8.9296875 C2.01455078 7.65351562 2.01455078 7.65351562 1.53125 6.3515625 C1.09135742 5.17327881 1.09135742 5.17327881 0.64257812 3.97119141 C0 2 0 2 0 0 Z " fill="#ffffff" transform="translate(497,547)"/>
<path d="M0 0 C0 2.31 0 4.62 0 7 C-13.82957938 10.93983219 -26.57136926 14.05862236 -41 13 C-38.24998971 10.24998971 -35.09135144 9.74521718 -31.4375 8.75 C-24.37392532 6.76688242 -17.48210124 4.48410173 -10.62280273 1.87988281 C-6.95634364 0.5265784 -3.91998804 -0.32666567 0 0 Z " fill="#D99234" transform="translate(1251,452)"/>
<path d="M0 0 C0 1.32 0 2.64 0 4 C-14.73598281 4.07919615 -29.4555765 3.83015817 -44.1875 3.5 C-46.41340739 3.45163541 -48.63931884 3.40345725 -50.86523438 3.35546875 C-56.24353811 3.23912086 -61.62178778 3.12050063 -67 3 C-67 2.67 -67 2.34 -67 2 C-59.85420252 1.16939001 -52.77632276 0.80435403 -45.5859375 0.68359375 C-44.53145416 0.66281265 -43.47697083 0.64203156 -42.39053345 0.62062073 C-39.05208132 0.55583197 -35.71355593 0.49666856 -32.375 0.4375 C-30.12759739 0.39423086 -27.88020144 0.35061412 -25.6328125 0.30664062 C-8.11448035 -0.02818777 -8.11448035 -0.02818777 0 0 Z " fill="#DD9C46" transform="translate(1251,538)"/>
<path d="M0 0 C6.9169995 0.61373856 13.24035221 2.37052464 19.875 4.375 C20.89980469 4.67921875 21.92460938 4.9834375 22.98046875 5.296875 C25.98897617 6.19139944 28.99476638 7.09454512 32 8 C33.91921645 8.57570215 35.83848313 9.15123693 37.7578125 9.7265625 C39.17189306 10.15098148 40.58596295 10.57543606 42 11 C37.58554507 12.35194118 33.91288914 11.35208023 29.515625 10.34765625 C28.70003113 10.16867294 27.88443726 9.98968964 27.04412842 9.80528259 C24.44415594 9.2327026 21.84713964 8.64778105 19.25 8.0625 C17.48585787 7.67170902 15.72153669 7.28172541 13.95703125 6.89257812 C9.63588867 5.93773531 5.31735559 4.97181612 1 4 C0.67 2.68 0.34 1.36 0 0 Z " fill="#E39B3C" transform="translate(710,471)"/>
<path d="M0 0 C5.61 0.33 11.22 0.66 17 1 C16.34 2.98 15.68 4.96 15 7 C10.38 7 5.76 7 1 7 C0.67 4.69 0.34 2.38 0 0 Z " fill="#BE8031" transform="translate(639,536)"/>
<path d="M0 0 C0.66 0.33 1.32 0.66 2 1 C0.66512715 5.00461855 -0.91624954 5.31351277 -4.609375 7.25 C-5.75664063 7.8584375 -6.90390625 8.466875 -8.0859375 9.09375 C-9.30710889 9.72951786 -10.52846485 10.36493133 -11.75 11 C-12.95620869 11.63450591 -14.1619439 12.2699128 -15.3671875 12.90625 C-17.59605841 14.08301406 -19.82727604 15.2553512 -22.06152344 16.421875 C-25.01270997 17.95862492 -25.01270997 17.95862492 -27.75878906 19.765625 C-28.49838867 20.17296875 -29.23798828 20.5803125 -30 21 C-30.66 20.67 -31.32 20.34 -32 20 C-31.24380371 19.53625977 -30.48760742 19.07251953 -29.70849609 18.59472656 C-26.8788291 16.85866534 -24.04980266 15.12156945 -21.22119141 13.38378906 C-20.00139096 12.63468125 -18.78134331 11.88597579 -17.56103516 11.13769531 C-15.79783592 10.05642023 -14.03555769 8.97365744 -12.2734375 7.890625 C-11.21560059 7.24125977 -10.15776367 6.59189453 -9.06787109 5.92285156 C-6.0041209 4.00258286 -2.99850932 2.01996565 0 0 Z " fill="#EFA748" transform="translate(1175,412)"/>
<path d="M0 0 C2.99109782 5.42910923 4.13756266 11.5425254 5.6875 17.5 C6.02072266 18.73621094 6.35394531 19.97242188 6.69726562 21.24609375 C7.00728516 22.43332031 7.31730469 23.62054688 7.63671875 24.84375 C7.92248779 25.92849609 8.20825684 27.01324219 8.50268555 28.13085938 C8.98137138 30.89252648 8.94192831 32.40016783 8 35 C6.73514989 30.94363827 5.47176418 26.88682421 4.2097168 22.82958984 C3.78042901 21.45023361 3.35074557 20.07100044 2.9206543 18.69189453 C2.30152288 16.70637945 1.68382882 14.72042204 1.06640625 12.734375 C0.69459229 11.54038086 0.32277832 10.34638672 -0.06030273 9.11621094 C-0.77351345 6.75107152 -1.43551511 4.40361307 -2 2 C-1.34 2 -0.68 2 0 2 C0 1.34 0 0.68 0 0 Z " fill="#F9B458" transform="translate(911,305)"/>
<path d="M0 0 C0.33 0.66 0.66 1.32 1 2 C1.66 2 2.32 2 3 2 C2.82621826 2.63526611 2.65243652 3.27053223 2.47338867 3.92504883 C0.40191247 11.50775452 -1.64595103 19.0966885 -3.6875 26.6875 C-4.00783203 27.87794922 -4.32816406 29.06839844 -4.65820312 30.29492188 C-5.43896789 33.19657002 -6.21956385 36.09826346 -7 39 C-8.41215849 35.17202923 -7.58350692 32.36155274 -6.6015625 28.4765625 C-6.28703125 27.208125 -5.9725 25.9396875 -5.6484375 24.6328125 C-5.30772251 23.29676505 -4.96657281 21.96082839 -4.625 20.625 C-3.96776774 18.01390283 -3.31585421 15.40152847 -2.6640625 12.7890625 C-2.36967285 11.63100098 -2.0752832 10.47293945 -1.77197266 9.27978516 C-1.0462419 6.19646227 -0.48119129 3.12982004 0 0 Z " fill="#F9B65E" transform="translate(1001,305)"/>
<path d="M0 0 C1.89575251 -0.02721176 3.79161979 -0.04649136 5.6875 -0.0625 C6.74324219 -0.07410156 7.79898438 -0.08570313 8.88671875 -0.09765625 C11.72410262 -0.00865425 14.2438919 0.35060162 17 1 C17 1.66 17 2.32 17 3 C8.09 3.99 8.09 3.99 -1 5 C-0.67 3.35 -0.34 1.7 0 0 Z " fill="#BC8846" transform="translate(683,538)"/>
<path d="M0 0 C0.66 0.33 1.32 0.66 2 1 C-1.03866235 2.94224243 -4.08145024 4.87792695 -7.125 6.8125 C-7.9809375 7.35970703 -8.836875 7.90691406 -9.71875 8.47070312 C-14.05636229 11.22341861 -18.34384401 13.82458286 -23 16 C-22.07770509 12.96932872 -21.44562484 11.33442361 -18.87695312 9.40673828 C-18.02037109 8.96571777 -17.16378906 8.52469727 -16.28125 8.0703125 C-14.88326172 7.34328125 -14.88326172 7.34328125 -13.45703125 6.6015625 C-12.48121094 6.11429688 -11.50539063 5.62703125 -10.5 5.125 C-9.52417969 4.61453125 -8.54835938 4.1040625 -7.54296875 3.578125 C-2.22109355 0.8546204 -2.22109355 0.8546204 0 0 Z " fill="#F5A945" transform="translate(769,651)"/>
<path d="M0 0 C4.64964659 1.37584383 8.66241905 3.35165954 12.8125 5.8125 C14.04011716 6.52776858 15.26798218 7.24261191 16.49609375 7.95703125 C17.09019043 8.30459473 17.68428711 8.6521582 18.29638672 9.01025391 C21.83189816 11.0642756 25.41783973 13.02886419 29 15 C29 15.99 29 16.98 29 18 C23.34178236 15.88905443 18.48207007 12.74572147 13.375 9.5625 C12.42109375 8.97662109 11.4671875 8.39074219 10.484375 7.78710938 C9.56914063 7.21927734 8.65390625 6.65144531 7.7109375 6.06640625 C6.87868652 5.55021729 6.04643555 5.03402832 5.18896484 4.50219727 C3.20683856 3.14194486 1.62399244 1.76244947 0 0 Z " fill="#F4AA49" transform="translate(1143,647)"/>
<path d="M0 0 C2.473576 2.27715168 4.13074799 4.64327618 5.84765625 7.52734375 C6.37037109 8.40197266 6.89308594 9.27660156 7.43164062 10.17773438 C7.96982422 11.08845703 8.50800781 11.99917969 9.0625 12.9375 C9.60455078 13.84435547 10.14660156 14.75121094 10.70507812 15.68554688 C12.92150144 19.40880927 15.10522623 23.10069931 17 27 C16.01 27.33 15.02 27.66 14 28 C13.68248779 27.39003174 13.36497559 26.78006348 13.0378418 26.15161133 C11.58932075 23.37107439 10.13843355 20.59177876 8.6875 17.8125 C7.93823242 16.37293945 7.93823242 16.37293945 7.17382812 14.90429688 C6.68720703 13.97294922 6.20058594 13.04160156 5.69921875 12.08203125 C5.25408936 11.22843018 4.80895996 10.3748291 4.3503418 9.49536133 C3.3980963 7.73566124 2.38528294 6.00808859 1.33129883 4.30737305 C0 2 0 2 0 0 Z " fill="#F9B050" transform="translate(1057,731)"/>
<path d="M0 0 C0.66 0.33 1.32 0.66 2 1 C1.33687643 4.64155997 -0.22713504 7.28724601 -2.16015625 10.421875 C-2.78857422 11.44667969 -3.41699219 12.47148437 -4.06445312 13.52734375 C-4.72380859 14.59082031 -5.38316406 15.65429688 -6.0625 16.75 C-6.72572266 17.82894531 -7.38894531 18.90789062 -8.07226562 20.01953125 C-9.71017776 22.68261141 -11.35290281 25.34259449 -13 28 C-13.33 27.34 -13.66 26.68 -14 26 C-12.93603516 23.6015625 -12.93603516 23.6015625 -11.2890625 20.625 C-10.70382812 19.55765625 -10.11859375 18.4903125 -9.515625 17.390625 C-8.89171875 16.27171875 -8.2678125 15.1528125 -7.625 14 C-7.00882813 12.88109375 -6.39265625 11.7621875 -5.7578125 10.609375 C-4.61651049 8.53701082 -3.47180043 6.46651769 -2.32275391 4.3984375 C-1.52204157 2.94657372 -0.74149156 1.48298312 0 0 Z " fill="#F9B04F" transform="translate(1071,321)"/>
<path d="M0 0 C0.33 0.66 0.66 1.32 1 2 C-0.42460102 5.6590236 -2.36275453 9.08886063 -4.1875 12.5625 C-4.9309668 14.03879883 -4.9309668 14.03879883 -5.68945312 15.54492188 C-6.17736328 16.48013672 -6.66527344 17.41535156 -7.16796875 18.37890625 C-7.61422607 19.2407251 -8.0604834 20.10254395 -8.52026367 20.99047852 C-10 23 -10 23 -12.17700195 23.78881836 C-13.07938599 23.89335327 -13.07938599 23.89335327 -14 24 C-12.70208638 20.51825247 -11.18014318 17.48384093 -9.1796875 14.35546875 C-8.64472656 13.51435547 -8.10976563 12.67324219 -7.55859375 11.80664062 C-6.72521484 10.51016602 -6.72521484 10.51016602 -5.875 9.1875 C-5.31167969 8.30384766 -4.74835937 7.42019531 -4.16796875 6.50976562 C-2.78236826 4.33742587 -1.39295366 2.16762917 0 0 Z " fill="#F9AC46" transform="translate(859,737)"/>
<path d="M0 0 C0.98226562 0.27263672 0.98226562 0.27263672 1.984375 0.55078125 C8.15217344 2.2495393 14.33159064 3.81884466 20.56640625 5.25390625 C23 6 23 6 25 8 C18.67250629 7.39828638 12.62404348 6.37848091 6.4375 4.9375 C5.61958984 4.75123047 4.80167969 4.56496094 3.95898438 4.37304688 C1.97164104 3.91979313 -0.01433201 3.46053788 -2 3 C-1.34 2.67 -0.68 2.34 0 2 C0 1.34 0 0.68 0 0 Z " fill="#E5A756" transform="translate(727,475)"/>
<path d="M0 0 C1.25414522 3.58752521 0.73271684 6.00508642 -0.21484375 9.640625 C-0.48876953 10.71054687 -0.76269531 11.78046875 -1.04492188 12.8828125 C-1.33947266 13.99398437 -1.63402344 15.10515625 -1.9375 16.25 C-2.22818359 17.37664063 -2.51886719 18.50328125 -2.81835938 19.6640625 C-3.53716405 22.44501174 -4.26465981 25.22338584 -5 28 C-5.99 27.67 -6.98 27.34 -8 27 C-5.62971149 17.90425874 -2.84301919 8.95607231 0 0 Z " fill="#FABA66" transform="translate(919,740)"/>
<path d="M0 0 C3.18369762 3.86591853 5.40905986 8.22373715 7.75 12.625 C8.17410156 13.40101563 8.59820313 14.17703125 9.03515625 14.9765625 C9.43089844 15.7190625 9.82664062 16.4615625 10.234375 17.2265625 C10.59756836 17.90283691 10.96076172 18.57911133 11.33496094 19.27587891 C11.55442383 19.84483887 11.77388672 20.41379883 12 21 C11.67 21.66 11.34 22.32 11 23 C9.36992743 20.44060561 7.74584824 17.87772677 6.125 15.3125 C5.66480469 14.59126953 5.20460938 13.87003906 4.73046875 13.12695312 C0.11428874 5.80127616 0.11428874 5.80127616 -1 2 C-0.67 1.34 -0.34 0.68 0 0 Z " fill="#F9AD48" transform="translate(848,320)"/>
<path d="M0 0 C-0.33 10.56 -0.66 21.12 -1 32 C-1.33 32 -1.66 32 -2 32 C-2.33 22.43 -2.66 12.86 -3 3 C-4.32 3.33 -5.64 3.66 -7 4 C-3.17391304 0 -3.17391304 0 0 0 Z " fill="#D3CFD6" transform="translate(1143,433)"/>
<path d="M0 0 C4.32504836 1.65863505 7.09418825 4.871041 10.25 8.125 C11.08144531 8.96998047 11.08144531 8.96998047 11.9296875 9.83203125 C13.29104485 11.21686028 14.64614859 12.60783204 16 14 C15.34 14.66 14.68 15.32 14 16 C12.29115995 14.37660195 10.62553283 12.70680947 9 11 C9 10.34 9 9.68 9 9 C8.34 9 7.68 9 7 9 C5.2734375 7.28515625 5.2734375 7.28515625 3.375 5.0625 C2.74335937 4.33160156 2.11171875 3.60070312 1.4609375 2.84765625 C0 1 0 1 0 0 Z " fill="#FABA67" transform="translate(1102,706)"/>
<path d="M0 0 C4.95725232 0.52131717 8.28207993 2.85203212 12.3125 5.5625 C13.28026367 6.19961914 13.28026367 6.19961914 14.26757812 6.84960938 C15.84973954 7.89266393 17.42552501 8.94537872 19 10 C18.01 10.495 18.01 10.495 17 11 C15.21240234 10.28735352 15.21240234 10.28735352 13.0859375 9.12890625 C12.32539062 8.71962891 11.56484375 8.31035156 10.78125 7.88867188 C9.9871875 7.45103516 9.193125 7.01339844 8.375 6.5625 C7.17230469 5.9118457 7.17230469 5.9118457 5.9453125 5.24804688 C3.95955849 4.17243012 1.9781454 3.08952787 0 2 C0 1.34 0 0.68 0 0 Z " fill="#F8AE4D" transform="translate(755,420)"/>
<path d="M0 0 C0.99 0.33 1.98 0.66 3 1 C-1.62 5.62 -6.24 10.24 -11 15 C-11.66 14.67 -12.32 14.34 -13 14 C-12.31292969 13.32453125 -11.62585937 12.6490625 -10.91796875 11.953125 C-10.01691406 11.06109375 -9.11585937 10.1690625 -8.1875 9.25 C-6.84751953 7.92742187 -6.84751953 7.92742187 -5.48046875 6.578125 C-3.44787848 4.46551149 -1.68226182 2.39205335 0 0 Z " fill="#FABB68" transform="translate(1114,360)"/>
<path d="M0 0 C2.24497221 2.24497221 2.37003419 2.96027349 2.75 6 C2.84796875 6.70125 2.9459375 7.4025 3.046875 8.125 C3 10 3 10 1 12 C0.01751476 7.9472484 -0.08159574 4.16138263 0 0 Z " fill="#F8A940" transform="translate(1000,763)"/>
<path d="M0 0 C-1.39332574 3.36720387 -2.9789286 4.9859524 -6 7 C-6 4 -6 4 -4.125 1.8125 C-2 0 -2 0 0 0 Z " fill="#F8A83F" transform="translate(801,715)"/>
<path d="M0 0 C0.99 0.33 1.98 0.66 3 1 C1.35 2.65 -0.3 4.3 -2 6 C-2.99 5.67 -3.98 5.34 -5 5 C-3.35 3.35 -1.7 1.7 0 0 Z " fill="#F8A73B" transform="translate(1120,354)"/>
</svg>